<?xml version="1.0" standalone="no"?>
<!DOCTYPE svg PUBLIC "-//W3C//DTD SVG 1.1//EN" "http://www.w3.org/Graphics/SVG/1.1/DTD/svg11.dtd" >
<svg xmlns="http://www.w3.org/2000/svg" xmlns:xlink="http://www.w3.org/1999/xlink" version="1.1">
<metadata>
Created by FontForge 20170924 at Fri Jan  1 00:00:00 1904
 By www-data
Typeface (c) The Monotype Corporation plc. Data (c) The Monotype Corporation plc/Type Solutions Inc. 1990-1992. All Rights Reserved
</metadata>
<defs>
<font id="Arial" horiz-adv-x="1139" >
  <font-face 
    font-family="Arial"
    font-weight="400"
    font-stretch="normal"
    units-per-em="2048"
    panose-1="2 11 5 0 0 0 0 0 0 0"
    ascent="1638"
    descent="-410"
    x-height="1062"
    cap-height="1466"
    bbox="-90 -431 2112 1872"
    underline-thickness="150"
    underline-position="-292"
    unicode-range="U+0020-2219"
  />
<missing-glyph horiz-adv-x="1536" 
d="M256 0v1280h1024v-1280h-1024zM1248 32v1216h-960v-1216h960z" />
    <glyph glyph-name=".notdef" horiz-adv-x="1536" 
d="M256 0v1280h1024v-1280h-1024zM1248 32v1216h-960v-1216h960z" />
    <glyph glyph-name=".null" horiz-adv-x="0" 
 />
    <glyph glyph-name="nonmarkingreturn" horiz-adv-x="569" 
 />
    <glyph glyph-name="space" unicode=" " horiz-adv-x="569" 
 />
    <glyph glyph-name="exclam" unicode="!" horiz-adv-x="571" 
d="M228 364l-55 777v325h223v-325l-52 -777h-116zM181 0v205h207v-205h-207z" />
    <glyph glyph-name="quotedbl" unicode="&#x22;" horiz-adv-x="726" 
d="M145 947l-50 279v240h205v-240l-45 -279h-110zM476 947l-49 279v240h205v-240l-48 -279h-108z" />
    <glyph glyph-name="numbersign" unicode="#" 
d="M107 -25l87 426h-169v149h199l74 363h-273v149h303l87 429h150l-87 -429h315l87 429h151l-87 -429h173v-149h-203l-75 -363h278v-149h-308l-87 -426h-150l86 426h-314l-87 -426h-150zM374 550h314l75 363h-315z" />
    <glyph glyph-name="dollar" unicode="$" 
d="M514 -211v180q-408 42 -437 438l181 34q43 -299 256 -320v573q-406 87 -406 412q0 157 98 274t308 135v86h106v-86q344 -32 391 -361l-186 -28q-28 205 -205 237v-519q427 -87 427 -427q0 -184 -119 -311.5t-308 -134.5v-182h-106zM514 1365q-103 -14 -164.5 -82.5
t-61.5 -162.5q0 -185 226 -253v498zM620 121q92 12 167 84.5t75 198.5q0 92 -45.5 155t-196.5 110v-548z" />
    <glyph glyph-name="percent" unicode="%" horiz-adv-x="1821" 
d="M437 -54l802 1545h146l-799 -1545h-149zM123 1114q0 163 81 270t226 107q140 0 230 -99.5t90 -288.5q0 -196 -95.5 -291.5t-221.5 -95.5q-134 0 -222 99.5t-88 298.5zM436 1367q-78 0 -117 -68t-39 -205q0 -127 39 -190.5t117 -63.5q79 0 118 68t39 204q0 128 -39 191.5
t-118 63.5zM1071 344q0 165 83 271t224 106q152 0 236.5 -105t84.5 -283q0 -187 -92 -287t-225 -100q-135 0 -223 100t-88 298zM1385 597q-78 0 -117.5 -68t-39.5 -205q0 -127 39 -190.5t117 -63.5q79 0 118.5 68t39.5 204q0 128 -39 191.5t-118 63.5z" />
    <glyph glyph-name="ampersand" unicode="&#x26;" horiz-adv-x="1367" 
d="M973 173q-175 -198 -421 -198q-219 0 -341.5 135t-122.5 294q0 271 349 438q-165 188 -165 322q0 133 104.5 230t259.5 97q148 0 244.5 -91.5t96.5 -222.5q0 -208 -277 -356l263 -335q45 88 70 204l187 -40q-48 -194 -130 -316q101 -134 229 -225l-121 -143
q-109 70 -225 207zM607 937q186 103 186 236q0 77 -49 123.5t-117 46.5q-69 0 -119.5 -45.5t-50.5 -116.5q0 -68 70 -151zM860 315l-330 409q-248 -148 -248 -309q0 -96 75 -188.5t197 -92.5q87 0 174 54.5t132 126.5z" />
    <glyph glyph-name="quotesingle" unicode="'" horiz-adv-x="388" 
d="M139 947l-46 274v245h205v-245l-48 -274h-111z" />
    <glyph glyph-name="parenleft" unicode="(" horiz-adv-x="683" 
d="M479 -431q-355 466 -355 962q0 487 355 960h129q-299 -480 -299 -958q0 -484 299 -964h-129z" />
    <glyph glyph-name="parenright" unicode=")" horiz-adv-x="683" 
d="M203 -431h-129q299 483 299 964q0 477 -299 958h129q355 -473 355 -960q0 -289 -113 -544.5t-242 -417.5z" />
    <glyph glyph-name="asterisk" unicode="*" horiz-adv-x="796" 
d="M68 1197l46 142q170 -60 231 -97q-20 181 -20 249h145q-2 -98 -23 -248q103 52 236 96l46 -142q-127 -42 -249 -56q47 -39 172 -189l-120 -85q-59 79 -137 215q-75 -144 -130 -215l-118 85q131 159 166 189q-130 25 -245 56z" />
    <glyph glyph-name="plus" unicode="+" horiz-adv-x="1196" 
d="M513 237v402h-399v168h399v399h170v-399h399v-168h-399v-402h-170z" />
    <glyph glyph-name="comma" unicode="," horiz-adv-x="571" 
d="M178 0v205h205v-205q0 -217 -167 -290l-50 77q113 47 114 213h-102z" />
    <glyph glyph-name="hyphen" unicode="-" horiz-adv-x="682" 
d="M65 440v181h553v-181h-553z" />
    <glyph glyph-name="period" unicode="." horiz-adv-x="571" 
d="M182 0v205h205v-205h-205z" />
    <glyph glyph-name="slash" unicode="/" horiz-adv-x="569" 
d="M0 -25l425 1516h144l-424 -1516h-145z" />
    <glyph glyph-name="zero" unicode="0" 
d="M89 723q0 375 119.5 562t358.5 187t358.5 -187t119.5 -562q0 -374 -119.5 -561t-358.5 -187t-358.5 187t-119.5 561zM274 723q0 -337 78 -468.5t215 -131.5t215 131t78 469q0 333 -76 466.5t-219 133.5q-140 0 -215.5 -135t-75.5 -465z" />
    <glyph glyph-name="one" unicode="1" 
d="M767 0h-180v1147q-136 -132 -360 -217v174q316 151 424 368h116v-1472z" />
    <glyph glyph-name="two" unicode="2" 
d="M1033 173v-173h-969v29q0 206 375 513q235 192 321 306t86 221q0 114 -80 184t-193 70q-131 0 -210.5 -77t-79.5 -217l-185 19q16 209 145 316.5t330 107.5q215 0 336.5 -118.5t121.5 -288.5q0 -120 -70 -241t-363 -369q-248 -209 -284 -282h719z" />
    <glyph glyph-name="three" unicode="3" 
d="M90 387l180 24q57 -288 287 -288q126 0 214 88t88 218q0 123 -81 204t-206 81q-51 0 -127 -20l20 158q17 -2 29 -2q120 0 209.5 63t89.5 182q0 109 -72.5 169t-167.5 60q-224 0 -265 -264l-180 32q30 179 149 279.5t292 100.5q184 0 306.5 -109t122.5 -272
q0 -102 -50.5 -176.5t-151.5 -120.5q136 -28 205 -129t69 -232q0 -203 -146.5 -331t-347.5 -128q-200 0 -325 119.5t-141 293.5z" />
    <glyph glyph-name="four" unicode="4" 
d="M666 0v351h-636v165l669 950h147v-950h198v-165h-198v-351h-180zM666 516v661l-459 -661h459z" />
    <glyph glyph-name="five" unicode="5" 
d="M89 384l189 16q19 -137 97 -207t185 -70q140 0 225 104.5t85 253.5q0 154 -87 243t-226 89q-177 0 -267 -142l-169 22l142 753h729v-172h-585l-79 -394q132 92 277 92q184 0 320 -129.5t136 -345.5q0 -205 -131.5 -363.5t-369.5 -158.5q-184 0 -318 104.5t-153 304.5z
" />
    <glyph glyph-name="six" unicode="6" 
d="M1027 1107l-179 -14q-51 231 -246 231q-165 0 -251.5 -154.5t-86.5 -413.5q64 98 153 146.5t203 48.5q185 0 309 -134.5t124 -340.5q0 -205 -122.5 -353t-332.5 -148q-219 0 -366 159.5t-147 551.5q0 408 141.5 597t380.5 189q176 0 288 -97.5t132 -267.5zM292 475
q0 -144 83.5 -248t215.5 -104q123 0 200.5 98t77.5 243t-77.5 236.5t-206.5 91.5q-126 0 -209.5 -89t-83.5 -228z" />
    <glyph glyph-name="seven" unicode="7" 
d="M101 1274v173h949v-140q-187 -194 -362 -563.5t-197 -743.5h-185q5 288 144.5 649t368.5 625h-718z" />
    <glyph glyph-name="eight" unicode="8" 
d="M366 795q-110 40 -165 115t-55 184q0 162 117 270t304 108q186 0 306 -108.5t120 -274.5q0 -106 -54 -179.5t-162 -114.5q140 -42 208 -145.5t68 -226.5q0 -207 -141 -327.5t-341 -120.5q-206 0 -345 122.5t-139 326.5q0 132 70 235.5t209 135.5zM330 1100
q0 -108 69 -172t172 -64q101 0 169 64.5t68 161.5q0 99 -69 166.5t-170 67.5q-103 0 -171 -67t-68 -157zM272 423q0 -128 84.5 -214t215.5 -86q126 0 211.5 82.5t85.5 211.5q0 132 -88 216t-215 84q-135 0 -214.5 -88.5t-79.5 -205.5z" />
    <glyph glyph-name="nine" unicode="9" 
d="M116 339l173 16q36 -232 243 -232q170 0 256 155t86 379q0 10 -1 33q-47 -77 -141.5 -135t-208.5 -58q-182 0 -308 133t-126 347q0 212 126 353.5t335 141.5q206 0 354.5 -156.5t148.5 -556.5q0 -419 -144.5 -601.5t-380.5 -182.5q-168 0 -279.5 94.5t-132.5 269.5z
M853 986q0 144 -78.5 240.5t-202.5 96.5q-132 0 -215 -105.5t-83 -245.5t84 -228t209 -88q136 0 211 94t75 236z" />
    <glyph glyph-name="colon" unicode=":" horiz-adv-x="571" 
d="M182 857v205h205v-205h-205zM182 0v205h205v-205h-205z" />
    <glyph glyph-name="semicolon" unicode=";" horiz-adv-x="571" 
d="M178 857v205h205v-205h-205zM178 0v205h205v-205q0 -217 -167 -290l-50 77q113 47 114 213h-102z" />
    <glyph glyph-name="less" unicode="&#x3c;" horiz-adv-x="1196" 
d="M113 641v168l971 410v-179l-770 -316l770 -319v-179z" />
    <glyph glyph-name="equal" unicode="=" horiz-adv-x="1196" 
d="M1082 862h-968v168h968v-168zM1082 417h-968v168h968v-168z" />
    <glyph glyph-name="greater" unicode="&#x3e;" horiz-adv-x="1196" 
d="M1084 641l-971 -415v179l769 319l-769 316v179l971 -410v-168z" />
    <glyph glyph-name="question" unicode="?" 
d="M476 361q-1 37 -1 58q0 140 50 223.5t183 200.5q82 71 114.5 120.5t32.5 115.5q0 104 -81.5 184t-201.5 80q-247 0 -293 -297l-185 22q24 209 151.5 316t323.5 107q205 0 338 -114t133 -286q0 -87 -37.5 -165.5t-183.5 -208.5q-111 -98 -139 -155.5t-31 -200.5h-173z
M465 0v205h205v-205h-205z" />
    <glyph glyph-name="at" unicode="@" horiz-adv-x="2079" 
d="M1166 163q-145 -166 -307 -166q-150 0 -256 126t-106 318q0 242 159 442.5t360 200.5q95 0 170.5 -46t131.5 -138l34 155h179l-144 -671q-30 -140 -30 -155q0 -30 22 -48t48 -18q50 0 147 65.5t168 200.5t71 287q0 276 -206 453.5t-511 177.5q-368 0 -600 -250t-232 -610
q0 -244 107 -424t312 -263t447 -83q256 0 435.5 88.5t263.5 213.5h181q-83 -172 -310.5 -311t-572.5 -139q-488 0 -749.5 247.5t-261.5 652.5q0 399 254 711.5t735 312.5q394 0 625 -231t231 -549q0 -279 -188.5 -498t-413.5 -219q-93 0 -141.5 42t-51.5 125zM682 434
q0 -132 63.5 -210.5t150.5 -78.5q136 0 250.5 153t114.5 347q0 134 -64.5 212t-167.5 78q-150 0 -248.5 -166.5t-98.5 -334.5z" />
    <glyph glyph-name="A" unicode="A" horiz-adv-x="1367" 
d="M-1 0l563 1466h209l600 -1466h-221l-171 444h-613l-161 -444h-206zM422 602h497l-153 406q-73 194 -104 304q-28 -141 -79 -280z" />
    <glyph glyph-name="B" unicode="B" horiz-adv-x="1367" 
d="M151 0v1466h550q236 0 361 -102.5t125 -272.5q0 -104 -51 -182t-154 -129q126 -34 201 -129t75 -226q0 -186 -125 -305.5t-423 -119.5h-559zM345 850h317q174 0 254 47t80 172q0 122 -75 173t-283 51h-293v-443zM345 173h365q179 0 263 60.5t84 189.5q0 135 -90 194.5
t-283 59.5h-339v-504z" />
    <glyph glyph-name="C" unicode="C" horiz-adv-x="1479" 
d="M1207 514l194 -49q-60 -240 -221.5 -365t-385.5 -125q-355 0 -522 223t-167 546q0 352 193 549.5t499 197.5q220 0 371.5 -113.5t207.5 -313.5l-191 -45q-99 306 -381 306q-250 0 -374.5 -157.5t-124.5 -416.5q0 -311 130.5 -460.5t342.5 -149.5q161 0 276.5 94
t152.5 279z" />
    <glyph glyph-name="D" unicode="D" horiz-adv-x="1479" 
d="M161 0v1466h505q183 0 296 -29.5t209 -122.5t149 -236.5t53 -333.5q0 -266 -97 -443.5t-244 -239t-342 -61.5h-529zM355 173h313q172 0 273.5 44.5t166.5 178t65 349.5q0 217 -71.5 345t-169 165.5t-269.5 37.5h-308v-1120z" />
    <glyph glyph-name="E" unicode="E" horiz-adv-x="1367" 
d="M162 0v1466h1060v-173h-866v-449h811v-172h-811v-499h900v-173h-1094z" />
    <glyph glyph-name="F" unicode="F" horiz-adv-x="1254" 
d="M164 0v1466h989v-173h-795v-454h688v-173h-688v-666h-194z" />
    <glyph glyph-name="G" unicode="G" horiz-adv-x="1593" 
d="M841 575v173h621v-544q-141 -114 -292.5 -171.5t-314.5 -57.5q-344 0 -546.5 206.5t-202.5 544.5q0 334 190.5 549.5t543.5 215.5q490 0 600 -435l-175 -48q-78 317 -424 317q-274 0 -404.5 -167.5t-130.5 -414.5q0 -300 150 -446.5t388 -146.5q135 0 257 53t171 99v273
h-431z" />
    <glyph glyph-name="H" unicode="H" horiz-adv-x="1479" 
d="M164 0v1466h194v-602h762v602h194v-1466h-194v691h-762v-691h-194z" />
    <glyph glyph-name="I" unicode="I" horiz-adv-x="571" 
d="M188 0v1466h194v-1466h-194z" />
    <glyph glyph-name="J" unicode="J" horiz-adv-x="1024" 
d="M59 416l175 24q6 -292 218 -292q118 0 168.5 68.5t50.5 239.5v1010h194v-999q0 -291 -119 -391.5t-293 -100.5q-195 0 -296 112q-98 108 -98 313v16z" />
    <glyph glyph-name="K" unicode="K" horiz-adv-x="1367" 
d="M151 0v1466h194v-727l728 727h263l-615 -594l642 -872h-256l-522 742l-240 -234v-508h-194z" />
    <glyph glyph-name="L" unicode="L" 
d="M154 0v1466h194v-1293h722v-173h-916z" />
    <glyph glyph-name="M" unicode="M" horiz-adv-x="1706" 
d="M154 0v1466h292l347 -1038l70 -217q21 70 78 235l351 1020h261v-1466h-187v1227l-426 -1227h-175l-424 1248v-1248h-187z" />
    <glyph glyph-name="N" unicode="N" horiz-adv-x="1479" 
d="M162 0v1466h199l770 -1151v1151h186v-1466h-199l-770 1152v-1152h-186z" />
    <glyph glyph-name="O" unicode="O" horiz-adv-x="1593" 
d="M96 714q0 366 197 572t505 206q309 0 504.5 -209.5t195.5 -551.5q0 -340 -197 -548t-504 -208q-221 0 -387.5 110.5t-240 284t-73.5 344.5zM296 711q0 -251 136 -410.5t364 -159.5q224 0 363 157.5t139 433.5q0 280 -140 436.5t-359 156.5q-215 0 -359 -147t-144 -467z
" />
    <glyph glyph-name="P" unicode="P" horiz-adv-x="1367" 
d="M158 0v1466h553q190 0 303 -33t188 -137.5t75 -253.5q0 -189 -121 -317.5t-428 -128.5h-376v-596h-194zM352 769h379q173 0 259.5 67t86.5 200q0 93 -47 158t-109.5 82t-193.5 17h-375v-524z" />
    <glyph glyph-name="Q" unicode="Q" horiz-adv-x="1593" 
d="M1277 157q153 -102 249 -136l-57 -135q-159 56 -315 180q-163 -91 -360 -91q-321 0 -509.5 219.5t-188.5 538.5q0 333 192.5 546t509.5 213q216 0 378.5 -104.5t242 -275.5t79.5 -378q0 -363 -221 -577zM850 405q169 -46 277 -140q171 156 171 469q0 266 -133 428.5
t-366 162.5q-220 0 -361.5 -150.5t-141.5 -441.5q0 -278 138 -435t362 -157q108 0 199 39q-92 61 -192 84z" />
    <glyph glyph-name="R" unicode="R" horiz-adv-x="1479" 
d="M164 0v1466h650q171 0 275 -31t175.5 -131.5t71.5 -237.5q0 -160 -105 -267t-308 -132q145 -61 278 -268l255 -399h-244l-194 305q-152 237 -227.5 291.5t-207.5 54.5h-225v-651h-194zM358 819h417q181 0 271 61.5t90 184.5q0 94 -68.5 166.5t-245.5 72.5h-464v-485z" />
    <glyph glyph-name="S" unicode="S" horiz-adv-x="1367" 
d="M92 471l183 16q17 -179 143 -258.5t286 -79.5q169 0 268.5 67t99.5 182q0 72 -42 123t-117.5 79.5t-284.5 78.5q-178 43 -270.5 87.5t-151 127.5t-58.5 193q0 177 140 290.5t376 113.5q251 0 396.5 -116.5t154.5 -321.5l-186 -14q-23 281 -355 281q-161 0 -250 -58.5
t-89 -161.5q0 -90 66.5 -137.5t281.5 -96.5q222 -50 332.5 -96.5t177 -139t66.5 -215.5q0 -194 -149.5 -317t-392.5 -123q-309 0 -465 139.5t-160 356.5z" />
    <glyph glyph-name="T" unicode="T" horiz-adv-x="1254" 
d="M527 0v1293h-483v173h1162v-173h-485v-1293h-194z" />
    <glyph glyph-name="U" unicode="U" horiz-adv-x="1479" 
d="M1122 1466h194v-846q0 -218 -49.5 -351.5t-183.5 -213.5t-343 -80q-309 0 -443 152.5t-134 492.5v846h194v-846q0 -191 36.5 -283.5t125 -139.5t204.5 -47q219 0 309 98t90 372v846z" />
    <glyph glyph-name="V" unicode="V" horiz-adv-x="1367" 
d="M578 0l-568 1466h210l381 -1065q50 -139 77 -240q34 120 79 240l396 1065h198l-574 -1466h-199z" />
    <glyph glyph-name="W" unicode="W" horiz-adv-x="1933" 
d="M410 0l-389 1466h199l223 -961q38 -162 62 -300l66 271l279 990h234l210 -742q78 -275 114 -519q28 139 73 319l230 942h195l-402 -1466h-187l-309 1117l-46 172q-22 -96 -43 -172l-311 -1117h-198z" />
    <glyph glyph-name="X" unicode="X" horiz-adv-x="1367" 
d="M9 0l567 764l-500 702h231l266 -376q89 -125 118 -180q49 80 116 167l295 389h211l-515 -691l555 -775h-240l-369 523q-33 48 -64 98q-45 -75 -70 -110l-368 -511h-233z" />
    <glyph glyph-name="Y" unicode="Y" horiz-adv-x="1367" 
d="M571 0v621l-565 845h236l289 -442q85 -131 149 -248q66 115 160 259l284 431h226l-585 -845v-621h-194z" />
    <glyph glyph-name="Z" unicode="Z" horiz-adv-x="1254" 
d="M37 0v180l751 939q80 100 152 174h-818v173h1050v-173l-823 -1017q-44 -52 -89 -103h936v-173h-1159z" />
    <glyph glyph-name="bracketleft" unicode="[" horiz-adv-x="571" 
d="M136 -407v1873h397v-149h-217v-1575h217v-149h-397z" />
    <glyph glyph-name="backslash" unicode="\" horiz-adv-x="569" 
d="M425 -25l-425 1516h145l424 -1516h-144z" />
    <glyph glyph-name="bracketright" unicode="]" horiz-adv-x="571" 
d="M433 -407h-397v149h217v1575h-217v149h397v-1873z" />
    <glyph glyph-name="asciicircum" unicode="^" horiz-adv-x="961" 
d="M239 690h-185l353 801h145l355 -801h-181l-247 597z" />
    <glyph glyph-name="underscore" unicode="_" 
d="M-12 -407v130h1163v-130h-1163z" />
    <glyph glyph-name="grave" unicode="`" horiz-adv-x="682" 
d="M465 1194h-145l-231 280h241z" />
    <glyph glyph-name="a" unicode="a" 
d="M832 131q-90 -77 -187.5 -116t-203.5 -39q-168 0 -265.5 83.5t-97.5 220.5q0 148 103.5 227.5t314.5 104.5q218 26 321 62q1 37 1 47q0 105 -55.5 160.5t-200.5 55.5q-128 0 -188 -44.5t-89 -157.5l-176 24q58 327 472 327q179 0 274 -52.5t119.5 -127.5t24.5 -221v-240
q0 -237 9.5 -307t47.5 -138h-188q-29 56 -36 131zM817 533q-98 -40 -294 -68q-144 -21 -198.5 -61t-54.5 -119q0 -73 55.5 -120.5t158.5 -47.5q104 0 186 46t114.5 117t32.5 187v66z" />
    <glyph glyph-name="b" unicode="b" 
d="M305 0h-167v1466h180v-523q55 72 127.5 107.5t162.5 35.5q204 0 327.5 -149t123.5 -390q0 -271 -134 -421t-327 -150q-93 0 -166 39.5t-127 117.5v-133zM303 539q0 -166 33.5 -241t97.5 -124.5t151 -49.5q133 0 211.5 112t78.5 296q0 177 -70.5 291.5t-211.5 114.5
q-137 0 -213.5 -116t-76.5 -283z" />
    <glyph glyph-name="c" unicode="c" horiz-adv-x="1024" 
d="M828 389l177 -23q-26 -184 -150 -287t-286 -103q-237 0 -363 150t-126 401q0 274 132.5 416.5t351.5 142.5q157 0 275.5 -82t148.5 -254l-175 -27q-50 215 -241 215q-143 0 -225 -102t-82 -299q0 -206 74 -309.5t222 -103.5q229 0 267 265z" />
    <glyph glyph-name="d" unicode="d" 
d="M828 0v134q-50 -79 -124 -118.5t-172 -39.5q-203 0 -330.5 156t-127.5 397q0 257 123 407t326 150q94 0 167 -36.5t126 -109.5v526h179v-1466h-167zM259 530q0 -188 79 -297t210 -109q113 0 198 94t85 300q0 188 -75 303.5t-216 115.5q-132 0 -206.5 -107t-74.5 -300z
" />
    <glyph glyph-name="e" unicode="e" 
d="M866 342l186 -23q-40 -155 -159 -249t-308 -94q-238 0 -372 146t-134 400q0 255 133 409.5t363 154.5q216 0 349.5 -148t133.5 -407q0 -14 -1 -46h-792q8 -166 95 -263.5t226 -97.5q206 0 280 218zM275 633h593q-10 158 -96 231.5t-195 73.5q-134 0 -214.5 -90
t-87.5 -215z" />
    <glyph glyph-name="f" unicode="f" horiz-adv-x="571" 
d="M175 0v922h-159v140h159v113q0 115 27 178.5t94.5 100.5t172.5 37q76 0 168 -18l-27 -157q-49 10 -109 10q-68 0 -107.5 -29.5t-39.5 -136.5v-98h207v-140h-207v-922h-179z" />
    <glyph glyph-name="g" unicode="g" 
d="M106 -88l175 -26q17 -168 244 -168q121 0 190.5 48t88.5 120t19 253q-58 -69 -131 -104t-160 -35q-220 0 -341 157.5t-121 377.5q0 241 121 396t341 155q93 0 170 -38t138 -114v128h166v-918q0 -231 -46 -340t-160.5 -172t-269.5 -63q-214 0 -321 94q-103 90 -103 237v12
zM255 550q0 -213 85 -307t206 -94q129 0 210.5 98.5t81.5 300.5q0 170 -77.5 279.5t-217.5 109.5q-130 0 -209 -103.5t-79 -283.5z" />
    <glyph glyph-name="h" unicode="h" 
d="M138 0v1466h180v-526q61 73 141 109.5t179 36.5q177 0 271 -93t94 -320v-673h-180v673q0 129 -56 193.5t-169 64.5q-98 0 -189 -69t-91 -281v-581h-180z" />
    <glyph glyph-name="i" unicode="i" horiz-adv-x="455" 
d="M137 1259v207h180v-207h-180zM137 0v1062h180v-1062h-180z" />
    <glyph glyph-name="j" unicode="j" horiz-adv-x="455" 
d="M138 1257v209h180v-209h-180zM-90 -412l34 153q52 -14 85 -14q63 0 86 41.5t23 177.5v1116h180v-1120q0 -197 -58.5 -285t-208.5 -88q-73 0 -141 19z" />
    <glyph glyph-name="k" unicode="k" horiz-adv-x="1024" 
d="M136 0v1466h180v-836l426 432h233l-406 -394l447 -668h-222l-351 543l-127 -122v-421h-180z" />
    <glyph glyph-name="l" unicode="l" horiz-adv-x="455" 
d="M135 0v1466h180v-1466h-180z" />
    <glyph glyph-name="m" unicode="m" horiz-adv-x="1706" 
d="M134 0v1062h161v-149q57 87 138 130t186 43q116 0 190.5 -46.5t107.5 -139.5q61 93 143 139.5t184 46.5q165 0 247 -89t82 -268v-729h-179v669q0 141 -43.5 201t-144.5 60q-116 0 -188.5 -76t-72.5 -237v-617h-180v690q0 120 -47.5 180t-142.5 60q-97 0 -179 -69.5
t-82 -309.5v-551h-180z" />
    <glyph glyph-name="n" unicode="n" 
d="M139 0v1062h162v-151q59 88 143.5 131.5t194.5 43.5q130 0 218 -56t116.5 -138.5t28.5 -238.5v-653h-180v646q0 148 -52 216t-171 68q-117 0 -198.5 -75t-81.5 -275v-580h-180z" />
    <glyph glyph-name="o" unicode="o" 
d="M72 531q0 286 146 420.5t352 134.5q228 0 362.5 -148t134.5 -392q0 -287 -138.5 -428.5t-358.5 -141.5q-212 0 -355 137.5t-143 417.5zM257 531q0 -201 88.5 -304t224.5 -103t224 103t88 310q0 189 -86 294.5t-226 105.5q-137 0 -225 -103t-88 -303z" />
    <glyph glyph-name="p" unicode="p" 
d="M139 -407v1469h164v-138q55 81 131.5 121.5t174.5 40.5q211 0 331.5 -153t120.5 -381q0 -266 -130 -421t-334 -155q-85 0 -154.5 33.5t-123.5 100.5v-517h-180zM302 525q0 -184 73.5 -292.5t209.5 -108.5q121 0 206.5 102t85.5 318q0 187 -79 294t-204 107
q-128 0 -210 -117t-82 -303z" />
    <glyph glyph-name="q" unicode="q" 
d="M816 -407v520q-34 -53 -111.5 -95t-166.5 -42q-205 0 -333.5 160t-128.5 405q0 248 123 396.5t327 148.5q98 0 175 -41.5t133 -124.5v142h162v-1469h-180zM261 534q0 -190 80 -300t212 -110q114 0 197.5 97t83.5 300q0 180 -77.5 301.5t-215.5 121.5
q-129 0 -204.5 -107.5t-75.5 -302.5z" />
    <glyph glyph-name="r" unicode="r" horiz-adv-x="683" 
d="M133 0v1062h162v-161q48 93 105.5 139t124.5 46q93 0 185 -58l-62 -167q-66 39 -132 39q-101 0 -152 -86t-51 -258v-556h-180z" />
    <glyph glyph-name="s" unicode="s" horiz-adv-x="1024" 
d="M63 317l178 28q31 -221 275 -221q120 0 182 49.5t62 119.5q0 61 -45 90.5t-192 66.5q-176 45 -256.5 78.5t-127 98.5t-46.5 153q0 140 108.5 223t278.5 83q169 0 285 -64.5t140 -233.5l-176 -24q-25 174 -232 174q-107 0 -168.5 -35.5t-61.5 -101.5q0 -59 43.5 -86
t206.5 -71q184 -49 265 -82.5t122 -98t41 -151.5q0 -143 -115.5 -239.5t-312.5 -96.5q-394 0 -454 341z" />
    <glyph glyph-name="t" unicode="t" horiz-adv-x="571" 
d="M525 161l26 -159q-73 -16 -135 -16q-105 0 -162.5 36t-73 94.5t-15.5 194.5v611h-132v140h132v263l179 108v-371h181v-140h-181v-621q0 -85 19 -116t83 -31q32 0 79 7z" />
    <glyph glyph-name="u" unicode="u" 
d="M835 0v156q-62 -90 -146.5 -135t-191.5 -45q-126 0 -214.5 56t-118 139.5t-29.5 232.5v658h180v-589q0 -139 13 -198.5t68 -101.5t138 -42q132 0 207 83t75 279v569h180v-1062h-161z" />
    <glyph glyph-name="v" unicode="v" horiz-adv-x="1024" 
d="M430 0l-404 1062h190l228 -636q39 -108 68 -214q21 77 67 202l236 648h185l-402 -1062h-168z" />
    <glyph glyph-name="w" unicode="w" horiz-adv-x="1479" 
d="M335 0l-325 1062h186l169 -613l63 -228q4 17 55 219l169 622h185l159 -616l53 -203l61 205l182 614h175l-332 -1062h-187l-169 636q-21 91 -41 181l-215 -817h-188z" />
    <glyph glyph-name="x" unicode="x" horiz-adv-x="1024" 
d="M15 0l388 552l-359 510h225l163 -249q51 -78 74 -119q37 55 81 117l179 251h215l-367 -500l395 -562h-221l-218 330l-58 89l-279 -419h-218z" />
    <glyph glyph-name="y" unicode="y" horiz-adv-x="1024" 
d="M127 -409l-20 169q57 -16 104 -16q86 0 124.5 40.5t84.5 169.5q5 15 16 44l-403 1064h194l221 -615q45 -123 77 -246q29 120 74 242l227 619h180l-404 -1080q-92 -245 -161.5 -329t-197.5 -84q-54 0 -116 22z" />
    <glyph glyph-name="z" unicode="z" horiz-adv-x="1024" 
d="M40 0v146l676 776q-106 -6 -203 -6h-433v146h868v-119l-575 -674q-56 -61 -111 -123q122 9 227 9h491v-155h-940z" />
    <glyph glyph-name="braceleft" unicode="{" horiz-adv-x="683" 
d="M58 612q119 3 163 83.5t44 303.5q0 229 24.5 318t94 131.5t197.5 42.5h56v-157h-31q-100 0 -136 -35.5t-36 -169.5q0 -234 -10 -327.5t-55.5 -159t-143.5 -112.5q102 -40 155.5 -133.5t53.5 -316.5q0 -194 6 -247.5t39 -80t127 -26.5h31v-157h-56q-148 0 -201 44.5
t-84 109.5t-31 338q0 223 -43.5 304t-163.5 84v163z" />
    <glyph glyph-name="bar" unicode="|" horiz-adv-x="532" 
d="M188 -431v1922h157v-1922h-157z" />
    <glyph glyph-name="braceright" unicode="}" horiz-adv-x="683" 
d="M626 612v-163q-119 -3 -163 -83.5t-44 -304.5q0 -229 -24.5 -318t-94 -131.5t-197.5 -42.5h-56v157h31q100 0 136 35.5t36 170.5q0 240 11 332.5t60.5 160.5t137.5 105q-125 56 -167 156t-42 294t-6 247.5t-39 80t-127 26.5h-31v157h56q148 0 200.5 -44t84 -109
t31.5 -339q0 -222 43.5 -303t163.5 -84z" />
    <glyph glyph-name="asciitilde" unicode="~" horiz-adv-x="1196" 
d="M87 557v205q106 120 278 120q111 0 314 -87q111 -47 173 -47q127 0 258 137v-212q-119 -114 -277 -114q-106 0 -244 61q-161 73 -241 73q-72 0 -128.5 -31.5t-132.5 -104.5z" />
    <glyph glyph-name="afii10017" unicode="&#xc0;" horiz-adv-x="1367" 
d="M-1 0l563 1466h209l600 -1466h-221l-171 444h-613l-161 -444h-206zM422 602h497l-153 406q-73 194 -104 304q-28 -141 -79 -280z" />
    <glyph glyph-name="afii10017" unicode="&#x410;" horiz-adv-x="1367" 
d="M-1 0l563 1466h209l600 -1466h-221l-171 444h-613l-161 -444h-206zM422 602h497l-153 406q-73 194 -104 304q-28 -141 -79 -280z" />
    <glyph glyph-name="afii10018" unicode="&#xc1;" horiz-adv-x="1344" 
d="M167 1466h951v-173h-757v-452h350q194 0 308.5 -37t183.5 -139.5t69 -238.5q0 -111 -49.5 -207.5t-147.5 -157.5t-334 -61h-574v1466zM361 165h388q157 0 235.5 64t78.5 192q0 91 -45 152t-125 81t-273 20h-259v-509z" />
    <glyph glyph-name="afii10018" unicode="&#x411;" horiz-adv-x="1344" 
d="M167 1466h951v-173h-757v-452h350q194 0 308.5 -37t183.5 -139.5t69 -238.5q0 -111 -49.5 -207.5t-147.5 -157.5t-334 -61h-574v1466zM361 165h388q157 0 235.5 64t78.5 192q0 91 -45 152t-125 81t-273 20h-259v-509z" />
    <glyph glyph-name="afii10019" unicode="&#xc2;" horiz-adv-x="1367" 
d="M151 0v1466h550q236 0 361 -102.5t125 -272.5q0 -104 -51 -182t-154 -129q126 -34 201 -129t75 -226q0 -186 -125 -305.5t-423 -119.5h-559zM345 850h317q174 0 254 47t80 172q0 122 -75 173t-283 51h-293v-443zM345 173h365q179 0 263 60.5t84 189.5q0 135 -90 194.5
t-283 59.5h-339v-504z" />
    <glyph glyph-name="afii10019" unicode="&#x412;" horiz-adv-x="1367" 
d="M151 0v1466h550q236 0 361 -102.5t125 -272.5q0 -104 -51 -182t-154 -129q126 -34 201 -129t75 -226q0 -186 -125 -305.5t-423 -119.5h-559zM345 850h317q174 0 254 47t80 172q0 122 -75 173t-283 51h-293v-443zM345 173h365q179 0 263 60.5t84 189.5q0 135 -90 194.5
t-283 59.5h-339v-504z" />
    <glyph glyph-name="afii10020" unicode="&#xc3;" horiz-adv-x="1109" 
d="M161 1466h948v-173h-754v-1293h-194v1466z" />
    <glyph glyph-name="afii10020" unicode="&#x413;" horiz-adv-x="1109" 
d="M161 1466h948v-173h-754v-1293h-194v1466z" />
    <glyph glyph-name="afii10021" unicode="&#xc4;" horiz-adv-x="1387" 
d="M291 1466h892v-1293h132v-515h-173v342h-969v-342h-173v515h114q177 267 177 1079v214zM989 1293h-511v-75q0 -187 -33.5 -511.5t-131.5 -533.5h676v1120z" />
    <glyph glyph-name="afii10021" unicode="&#x414;" horiz-adv-x="1387" 
d="M291 1466h892v-1293h132v-515h-173v342h-969v-342h-173v515h114q177 267 177 1079v214zM989 1293h-511v-75q0 -187 -33.5 -511.5t-131.5 -533.5h676v1120z" />
    <glyph glyph-name="afii10022" unicode="&#xc5;" horiz-adv-x="1367" 
d="M162 0v1466h1060v-173h-866v-449h811v-172h-811v-499h900v-173h-1094z" />
    <glyph glyph-name="afii10022" unicode="&#x415;" horiz-adv-x="1367" 
d="M162 0v1466h1060v-173h-866v-449h811v-172h-811v-499h900v-173h-1094z" />
    <glyph glyph-name="afii10024" unicode="&#xc6;" horiz-adv-x="1891" 
d="M1045 1466v-642q143 0 196.5 52.5t136.5 246.5q61 144 100.5 203.5t112.5 100t160 40.5q95 0 118 -2v-168q-9 0 -38 1q-32 1 -39 1q-93 0 -138.5 -45t-104.5 -192q-64 -159 -111 -216.5t-136 -95.5q144 -40 279 -262l302 -488h-240l-245 398q-98 158 -165 223t-188 65
v-686h-199v686q-96 0 -169.5 -50.5t-171.5 -217.5l-12 -20l-245 -398h-241l302 488q138 223 280 262q-79 32 -129 85.5t-119 226.5q-63 157 -108 197t-134 40l-78 -2v168q11 2 112 2q96 0 166.5 -39.5t110.5 -99t103 -205.5q84 -197 136.5 -247t196.5 -52v642h199z" />
    <glyph glyph-name="afii10024" unicode="&#x416;" horiz-adv-x="1891" 
d="M1045 1466v-642q143 0 196.5 52.5t136.5 246.5q61 144 100.5 203.5t112.5 100t160 40.5q95 0 118 -2v-168q-9 0 -38 1q-32 1 -39 1q-93 0 -138.5 -45t-104.5 -192q-64 -159 -111 -216.5t-136 -95.5q144 -40 279 -262l302 -488h-240l-245 398q-98 158 -165 223t-188 65
v-686h-199v686q-96 0 -169.5 -50.5t-171.5 -217.5l-12 -20l-245 -398h-241l302 488q138 223 280 262q-79 32 -129 85.5t-119 226.5q-63 157 -108 197t-134 40l-78 -2v168q11 2 112 2q96 0 166.5 -39.5t110.5 -99t103 -205.5q84 -197 136.5 -247t196.5 -52v642h199z" />
    <glyph glyph-name="afii10025" unicode="&#xc7;" horiz-adv-x="1237" 
d="M78 414l185 48q21 -107 112.5 -214t242.5 -107q154 0 243 79t89 191q0 121 -94 192.5t-256 71.5h-93v169q134 0 205 15.5t125.5 79t54.5 144.5q0 96 -74.5 167t-201.5 71q-111 0 -189.5 -55.5t-108.5 -147t-30 -136.5l-186 42q69 467 516 467q215 0 341 -119.5
t126 -279.5q0 -205 -194 -318q112 -31 187.5 -126.5t75.5 -228.5q0 -189 -146.5 -316.5t-388.5 -127.5q-416 0 -541 439z" />
    <glyph glyph-name="afii10025" unicode="&#x417;" horiz-adv-x="1237" 
d="M78 414l185 48q21 -107 112.5 -214t242.5 -107q154 0 243 79t89 191q0 121 -94 192.5t-256 71.5h-93v169q134 0 205 15.5t125.5 79t54.5 144.5q0 96 -74.5 167t-201.5 71q-111 0 -189.5 -55.5t-108.5 -147t-30 -136.5l-186 42q69 467 516 467q215 0 341 -119.5
t126 -279.5q0 -205 -194 -318q112 -31 187.5 -126.5t75.5 -228.5q0 -189 -146.5 -316.5t-388.5 -127.5q-416 0 -541 439z" />
    <glyph glyph-name="afii10026" unicode="&#xc8;" horiz-adv-x="1472" 
d="M161 1466h176v-1161l780 1161h195v-1466h-176v1158l-781 -1158h-194v1466z" />
    <glyph glyph-name="afii10026" unicode="&#x418;" horiz-adv-x="1472" 
d="M161 1466h176v-1161l780 1161h195v-1466h-176v1158l-781 -1158h-194v1466z" />
    <glyph glyph-name="afii10027" unicode="&#xc9;" horiz-adv-x="1472" 
d="M413 1804h136q39 -125 205 -125q167 0 206 125h136q-6 -105 -93 -178t-235 -73q-186 0 -268.5 77t-86.5 174zM161 1466h176v-1161l780 1161h195v-1466h-176v1158l-781 -1158h-194v1466z" />
    <glyph glyph-name="afii10027" unicode="&#x419;" horiz-adv-x="1472" 
d="M413 1804h136q39 -125 205 -125q167 0 206 125h136q-6 -105 -93 -178t-235 -73q-186 0 -268.5 77t-86.5 174zM161 1466h176v-1161l780 1161h195v-1466h-176v1158l-781 -1158h-194v1466z" />
    <glyph glyph-name="afii10028" unicode="&#xca;" horiz-adv-x="1193" 
d="M161 1466h194v-642q133 0 187 51.5t138 247.5q61 144 100.5 203.5t112.5 100t161 40.5q112 0 118 -2v-168q-10 0 -39 1q-32 1 -39 1q-93 0 -138.5 -45t-104.5 -192q-74 -186 -125 -234.5t-122 -77.5q142 -39 280 -262l302 -488h-241l-245 398q-101 165 -169 226.5
t-176 61.5v-686h-194v1466z" />
    <glyph glyph-name="afii10028" unicode="&#x41a;" horiz-adv-x="1193" 
d="M161 1466h194v-642q133 0 187 51.5t138 247.5q61 144 100.5 203.5t112.5 100t161 40.5q112 0 118 -2v-168q-10 0 -39 1q-32 1 -39 1q-93 0 -138.5 -45t-104.5 -192q-74 -186 -125 -234.5t-122 -77.5q142 -39 280 -262l302 -488h-241l-245 398q-101 165 -169 226.5
t-176 61.5v-686h-194v1466z" />
    <glyph glyph-name="afii10029" unicode="&#xcb;" horiz-adv-x="1344" 
d="M265 1466h918v-1466h-194v1293h-530v-755q0 -230 -21.5 -337t-90.5 -166.5t-175 -59.5q-64 0 -154 24l33 172q48 -20 82 -20q66 0 99 49.5t33 233.5v1032z" />
    <glyph glyph-name="afii10029" unicode="&#x41b;" horiz-adv-x="1344" 
d="M265 1466h918v-1466h-194v1293h-530v-755q0 -230 -21.5 -337t-90.5 -166.5t-175 -59.5q-64 0 -154 24l33 172q48 -20 82 -20q66 0 99 49.5t33 233.5v1032z" />
    <glyph glyph-name="afii10030" unicode="&#xcc;" horiz-adv-x="1706" 
d="M154 0v1466h292l347 -1038l70 -217q21 70 78 235l351 1020h261v-1466h-187v1227l-426 -1227h-175l-424 1248v-1248h-187z" />
    <glyph glyph-name="afii10030" unicode="&#x41c;" horiz-adv-x="1706" 
d="M154 0v1466h292l347 -1038l70 -217q21 70 78 235l351 1020h261v-1466h-187v1227l-426 -1227h-175l-424 1248v-1248h-187z" />
    <glyph glyph-name="afii10031" unicode="&#xcd;" horiz-adv-x="1479" 
d="M164 0v1466h194v-602h762v602h194v-1466h-194v691h-762v-691h-194z" />
    <glyph glyph-name="afii10031" unicode="&#x41d;" horiz-adv-x="1479" 
d="M164 0v1466h194v-602h762v602h194v-1466h-194v691h-762v-691h-194z" />
    <glyph glyph-name="afii10032" unicode="&#xce;" horiz-adv-x="1593" 
d="M96 714q0 366 197 572t505 206q309 0 504.5 -209.5t195.5 -551.5q0 -340 -197 -548t-504 -208q-221 0 -387.5 110.5t-240 284t-73.5 344.5zM296 711q0 -251 136 -410.5t364 -159.5q224 0 363 157.5t139 433.5q0 280 -140 436.5t-359 156.5q-215 0 -359 -147t-144 -467z
" />
    <glyph glyph-name="afii10032" unicode="&#x41e;" horiz-adv-x="1593" 
d="M96 714q0 366 197 572t505 206q309 0 504.5 -209.5t195.5 -551.5q0 -340 -197 -548t-504 -208q-221 0 -387.5 110.5t-240 284t-73.5 344.5zM296 711q0 -251 136 -410.5t364 -159.5q224 0 363 157.5t139 433.5q0 280 -140 436.5t-359 156.5q-215 0 -359 -147t-144 -467z
" />
    <glyph glyph-name="afii10033" unicode="&#xcf;" horiz-adv-x="1472" 
d="M160 1466h1153v-1466h-195v1293h-764v-1293h-194v1466z" />
    <glyph glyph-name="afii10033" unicode="&#x41f;" horiz-adv-x="1472" 
d="M160 1466h1153v-1466h-195v1293h-764v-1293h-194v1466z" />
    <glyph glyph-name="afii10034" unicode="&#xd0;" horiz-adv-x="1367" 
d="M158 0v1466h553q190 0 303 -33t188 -137.5t75 -253.5q0 -189 -121 -317.5t-428 -128.5h-376v-596h-194zM352 769h379q173 0 259.5 67t86.5 200q0 93 -47 158t-109.5 82t-193.5 17h-375v-524z" />
    <glyph glyph-name="afii10034" unicode="&#x420;" horiz-adv-x="1367" 
d="M158 0v1466h553q190 0 303 -33t188 -137.5t75 -253.5q0 -189 -121 -317.5t-428 -128.5h-376v-596h-194zM352 769h379q173 0 259.5 67t86.5 200q0 93 -47 158t-109.5 82t-193.5 17h-375v-524z" />
    <glyph glyph-name="afii10035" unicode="&#xd1;" horiz-adv-x="1479" 
d="M1207 514l194 -49q-60 -240 -221.5 -365t-385.5 -125q-355 0 -522 223t-167 546q0 352 193 549.5t499 197.5q220 0 371.5 -113.5t207.5 -313.5l-191 -45q-99 306 -381 306q-250 0 -374.5 -157.5t-124.5 -416.5q0 -311 130.5 -460.5t342.5 -149.5q161 0 276.5 94
t152.5 279z" />
    <glyph glyph-name="afii10035" unicode="&#x421;" horiz-adv-x="1479" 
d="M1207 514l194 -49q-60 -240 -221.5 -365t-385.5 -125q-355 0 -522 223t-167 546q0 352 193 549.5t499 197.5q220 0 371.5 -113.5t207.5 -313.5l-191 -45q-99 306 -381 306q-250 0 -374.5 -157.5t-124.5 -416.5q0 -311 130.5 -460.5t342.5 -149.5q161 0 276.5 94
t152.5 279z" />
    <glyph glyph-name="afii10036" unicode="&#xd2;" horiz-adv-x="1256" 
d="M529 0v1293h-483v173h1162v-173h-485v-1293h-194z" />
    <glyph glyph-name="afii10036" unicode="&#x422;" horiz-adv-x="1256" 
d="M529 0v1293h-483v173h1162v-173h-485v-1293h-194z" />
    <glyph glyph-name="afii10037" unicode="&#xd3;" horiz-adv-x="1301" 
d="M10 1466h196l478 -898l418 898h193l-550 -1140q-103 -214 -169 -280t-189 -66q-75 0 -184 35v166q78 -45 165 -45q71 0 122.5 45.5t113.5 207.5z" />
    <glyph glyph-name="afii10037" unicode="&#x423;" horiz-adv-x="1301" 
d="M10 1466h196l478 -898l418 898h193l-550 -1140q-103 -214 -169 -280t-189 -66q-75 0 -184 35v166q78 -45 165 -45q71 0 122.5 45.5t113.5 207.5z" />
    <glyph glyph-name="afii10038" unicode="&#xd4;" horiz-adv-x="1557" 
d="M688 1290v188h182v-188q280 -15 442 -168.5t162 -381.5q0 -223 -157 -379t-447 -172v-189h-182v189q-260 10 -433 158.5t-173 392.5q0 245 172.5 392t433.5 158zM870 1124v-768q188 9 296 109t108 275q0 172 -106 272.5t-298 111.5zM688 1123q-181 -8 -293 -107
t-112 -276q0 -175 110.5 -275t294.5 -108v766z" />
    <glyph glyph-name="afii10038" unicode="&#x424;" horiz-adv-x="1557" 
d="M688 1290v188h182v-188q280 -15 442 -168.5t162 -381.5q0 -223 -157 -379t-447 -172v-189h-182v189q-260 10 -433 158.5t-173 392.5q0 245 172.5 392t433.5 158zM870 1124v-768q188 9 296 109t108 275q0 172 -106 272.5t-298 111.5zM688 1123q-181 -8 -293 -107
t-112 -276q0 -175 110.5 -275t294.5 -108v766z" />
    <glyph glyph-name="afii10039" unicode="&#xd5;" horiz-adv-x="1367" 
d="M9 0l567 764l-500 702h231l266 -376q89 -125 118 -180q49 80 116 167l295 389h211l-515 -691l555 -775h-240l-369 523q-33 48 -64 98q-45 -75 -70 -110l-368 -511h-233z" />
    <glyph glyph-name="afii10039" unicode="&#x425;" horiz-adv-x="1367" 
d="M9 0l567 764l-500 702h231l266 -376q89 -125 118 -180q49 80 116 167l295 389h211l-515 -691l555 -775h-240l-369 523q-33 48 -64 98q-45 -75 -70 -110l-368 -511h-233z" />
    <glyph glyph-name="afii10040" unicode="&#xd6;" horiz-adv-x="1515" 
d="M159 1466h194v-1293h764v1293h195v-1293h134v-580h-172v407h-1115v1466z" />
    <glyph glyph-name="afii10040" unicode="&#x426;" horiz-adv-x="1515" 
d="M159 1466h194v-1293h764v1293h195v-1293h134v-580h-172v407h-1115v1466z" />
    <glyph glyph-name="afii10041" unicode="&#xd7;" horiz-adv-x="1365" 
d="M1204 0h-194v591q-261 -97 -457 -97q-153 0 -270 71.5t-156.5 181.5t-39.5 288v431h194v-413q0 -240 87.5 -315.5t210.5 -75.5q205 0 431 91v713h194v-1466z" />
    <glyph glyph-name="afii10041" unicode="&#x427;" horiz-adv-x="1365" 
d="M1204 0h-194v591q-261 -97 -457 -97q-153 0 -270 71.5t-156.5 181.5t-39.5 288v431h194v-413q0 -240 87.5 -315.5t210.5 -75.5q205 0 431 91v713h194v-1466z" />
    <glyph glyph-name="afii10042" unicode="&#xd8;" horiz-adv-x="1877" 
d="M161 1466h194v-1293h487v1293h194v-1293h487v1293h194v-1466h-1556v1466z" />
    <glyph glyph-name="afii10042" unicode="&#x428;" horiz-adv-x="1877" 
d="M161 1466h194v-1293h487v1293h194v-1293h487v1293h194v-1466h-1556v1466z" />
    <glyph glyph-name="afii10043" unicode="&#xd9;" horiz-adv-x="1920" 
d="M161 1466h194v-1293h487v1293h194v-1293h487v1293h194v-1293h133v-580h-173v407h-1516v1466z" />
    <glyph glyph-name="afii10043" unicode="&#x429;" horiz-adv-x="1920" 
d="M161 1466h194v-1293h487v1293h194v-1293h487v1293h194v-1293h133v-580h-173v407h-1516v1466z" />
    <glyph glyph-name="afii10044" unicode="&#xda;" horiz-adv-x="1621" 
d="M0 1466h640v-626h351q345 0 452.5 -128t107.5 -288q0 -184 -124.5 -304t-423.5 -120h-557v1293h-446v173zM640 165h355q183 0 265 61.5t82 195.5q0 91 -48.5 153.5t-128.5 80t-266 17.5h-259v-508z" />
    <glyph glyph-name="afii10044" unicode="&#x42a;" horiz-adv-x="1621" 
d="M0 1466h640v-626h351q345 0 452.5 -128t107.5 -288q0 -184 -124.5 -304t-423.5 -120h-557v1293h-446v173zM640 165h355q183 0 265 61.5t82 195.5q0 91 -48.5 153.5t-128.5 80t-266 17.5h-259v-508z" />
    <glyph glyph-name="afii10045" unicode="&#xdb;" horiz-adv-x="1813" 
d="M168 1466h194v-626h350q344 0 452.5 -127t108.5 -288q0 -170 -116 -297.5t-431 -127.5h-558v1466zM362 165h355q183 0 265.5 61.5t82.5 196.5q0 92 -50 154t-129 79t-264 17h-260v-508zM1449 1466h194v-1466h-194v1466z" />
    <glyph glyph-name="afii10045" unicode="&#x42b;" horiz-adv-x="1813" 
d="M168 1466h194v-626h350q344 0 452.5 -127t108.5 -288q0 -170 -116 -297.5t-431 -127.5h-558v1466zM362 165h355q183 0 265.5 61.5t82.5 196.5q0 92 -50 154t-129 79t-264 17h-260v-508zM1449 1466h194v-1466h-194v1466z" />
    <glyph glyph-name="afii10046" unicode="&#xdc;" horiz-adv-x="1344" 
d="M165 1466h194v-626h350q245 0 355 -57t158 -155t48 -202q0 -170 -116 -298t-432 -128h-557v1466zM359 165h355q216 0 281.5 76.5t65.5 184.5q0 88 -47.5 149.5t-126.5 79.5t-268 18h-260v-508z" />
    <glyph glyph-name="afii10046" unicode="&#x42c;" horiz-adv-x="1344" 
d="M165 1466h194v-626h350q245 0 355 -57t158 -155t48 -202q0 -170 -116 -298t-432 -128h-557v1466zM359 165h355q216 0 281.5 76.5t65.5 184.5q0 88 -47.5 149.5t-126.5 79.5t-268 18h-260v-508z" />
    <glyph glyph-name="afii10047" unicode="&#xdd;" horiz-adv-x="1472" 
d="M627 843h537q-28 214 -142 346q-113 132 -327 132q-317 0 -400 -307l-190 50q54 201 207 314q154 113 382 113q216 0 372 -106t231 -271q76 -165 76 -365q0 -312 -164 -543t-511 -231q-485 0 -612 486l187 49q89 -372 439 -372q197 0 323 142.5t137 389.5h-545v173z" />
    <glyph glyph-name="afii10047" unicode="&#x42d;" horiz-adv-x="1472" 
d="M627 843h537q-28 214 -142 346q-113 132 -327 132q-317 0 -400 -307l-190 50q54 201 207 314q154 113 382 113q216 0 372 -106t231 -271q76 -165 76 -365q0 -312 -164 -543t-511 -231q-485 0 -612 486l187 49q89 -372 439 -372q197 0 323 142.5t137 389.5h-545v173z" />
    <glyph glyph-name="afii10048" unicode="&#xde;" horiz-adv-x="2069" 
d="M164 1466h194v-658h282q21 312 205 497.5t456 185.5q287 0 475.5 -202t188.5 -548q0 -360 -188 -563t-481 -203q-266 0 -443.5 175.5t-208.5 485.5h-286v-636h-194v1466zM835 726q0 -278 128 -431.5t336 -153.5q213 0 340 154t127 443q0 274 -125 431.5t-338 157.5
q-217 0 -342.5 -159.5t-125.5 -441.5z" />
    <glyph glyph-name="afii10048" unicode="&#x42e;" horiz-adv-x="2069" 
d="M164 1466h194v-658h282q21 312 205 497.5t456 185.5q287 0 475.5 -202t188.5 -548q0 -360 -188 -563t-481 -203q-266 0 -443.5 175.5t-208.5 485.5h-286v-636h-194v1466zM835 726q0 -278 128 -431.5t336 -153.5q213 0 340 154t127 443q0 274 -125 431.5t-338 157.5
q-217 0 -342.5 -159.5t-125.5 -441.5z" />
    <glyph glyph-name="afii10049" unicode="&#xdf;" horiz-adv-x="1471" 
d="M1311 0h-194v651h-225q-132 0 -208 -54q-75 -55 -227 -292l-194 -305h-244l255 399q133 207 278 268q-203 25 -308 132t-105 267q0 137 71 238q72 100 176 131t275 31h650v-1466zM1117 819v485h-464q-177 0 -246 -72q-68 -73 -68 -167q0 -123 90 -184.5t271 -61.5h417z
" />
    <glyph glyph-name="afii10049" unicode="&#x42f;" horiz-adv-x="1471" 
d="M1311 0h-194v651h-225q-132 0 -208 -54q-75 -55 -227 -292l-194 -305h-244l255 399q133 207 278 268q-203 25 -308 132t-105 267q0 137 71 238q72 100 176 131t275 31h650v-1466zM1117 819v485h-464q-177 0 -246 -72q-68 -73 -68 -167q0 -123 90 -184.5t271 -61.5h417z
" />
    <glyph glyph-name="dagger" unicode="&#x2020;" 
d="M478 -346v1212h-399v160h399v406h180v-406h402v-160h-402v-1212h-180z" />
    <glyph glyph-name="degree" unicode="&#xb0;" horiz-adv-x="819" 
d="M132 1214q0 114 81.5 195.5t195.5 81.5q116 0 197 -81t81 -196q0 -116 -81.5 -197t-196.5 -81q-113 0 -195 81.5t-82 196.5zM241 1214q0 -68 48.5 -118.5t119.5 -50.5q70 0 119.5 49.5t49.5 119.5q0 69 -49.5 119t-119.5 50q-72 0 -120 -51t-48 -118z" />
    <glyph glyph-name="section" unicode="&#xa7;" 
d="M147 -70l181 26q43 -235 255 -235q103 0 160 53t57 121q0 61 -66 125t-310 214q-191 117 -265 204t-74 206q0 100 61.5 176.5t163.5 106.5q-64 60 -96.5 121t-32.5 124q0 128 99.5 223.5t265.5 95.5q374 0 418 -347l-187 -19q-29 218 -215 218q-88 0 -146.5 -47.5
t-58.5 -111.5q0 -31 15 -61t45 -60q60 -60 282 -195q204 -124 277 -205t73 -201q0 -107 -56 -171.5t-171 -112.5q80 -61 119.5 -131t39.5 -149q0 -141 -110.5 -235t-286.5 -94q-181 0 -297.5 90.5t-139.5 270.5zM732 244q147 75 147 187q0 65 -60 128.5t-217 160.5
q-145 89 -204 138q-150 -85 -150 -194q0 -59 43 -116.5t195 -147t246 -156.5z" />
    <glyph glyph-name="bullet" unicode="&#x2022;" horiz-adv-x="717" 
d="M105 718q0 104 74.5 178.5t178.5 74.5q105 0 179.5 -74t74.5 -179t-75 -179.5t-179 -74.5t-178.5 74.5t-74.5 179.5z" />
    <glyph glyph-name="paragraph" unicode="&#xb6;" horiz-adv-x="1100" 
d="M400 -407v1045q-184 8 -294 120.5t-110 285.5q0 190 119 306t354 116h633v-173h-144v-1700h-170v1700h-223v-1700h-165z" />
    <glyph glyph-name="afii10055" unicode="&#xb2;" horiz-adv-x="533" 
d="M170 0v1466h194v-1466h-194z" />
    <glyph glyph-name="afii10055" unicode="&#x406;" horiz-adv-x="533" 
d="M170 0v1466h194v-1466h-194z" />
    <glyph glyph-name="registered" unicode="&#xae;" horiz-adv-x="1509" 
d="M755 1491q311 0 532.5 -221t221.5 -534q0 -310 -221.5 -532t-532.5 -222q-313 0 -534 221t-221 533q0 202 104 382t282.5 276.5t368.5 96.5zM755 1366q-259 0 -444.5 -184.5t-185.5 -445.5q0 -259 185 -444t445 -185q261 0 445 184.5t184 444.5q0 170 -86 318t-233.5 230
t-309.5 82zM424 319v812h279q121 0 187 -16t113 -73t47 -131q0 -87 -63 -154t-169 -75q75 -22 189 -204l99 -159h-160l-72 128q-82 144 -125 180.5t-117 36.5h-77v-345h-131zM555 776h159q99 0 148 31t49 93q0 65 -47 93t-160 28h-149v-245z" />
    <glyph glyph-name="copyright" unicode="&#xa9;" horiz-adv-x="1509" 
d="M755 1491q311 0 532.5 -221t221.5 -534q0 -310 -221.5 -532t-532.5 -222q-313 0 -534 221t-221 533q0 202 104 382t282.5 276.5t368.5 96.5zM755 1366q-259 0 -444.5 -184.5t-185.5 -445.5q0 -259 185 -444t445 -185q261 0 445 184.5t184 444.5q0 170 -86 318t-233.5 230
t-309.5 82zM997 614l123 -36q-28 -124 -127.5 -199t-234.5 -75q-198 0 -298 124.5t-100 305.5q0 196 107 311t297 115q133 0 222.5 -65t118.5 -171l-119 -29q-61 153 -226 153q-127 0 -195.5 -90t-68.5 -226q0 -148 69 -229.5t184 -81.5q85 0 156 51t92 142z" />
    <glyph glyph-name="trademark" unicode="&#x2122;" horiz-adv-x="2048" 
d="M489 651v694h-264v121h666v-121h-266v-694h-136zM982 651v815h200l206 -651l199 651h196v-815h-124v684l-210 -684h-123l-219 694v-694h-125z" />
    <glyph glyph-name="afii10051" horiz-adv-x="1771" 
d="M50 1466h1170v-173h-488v-456q253 99 440 99q233 0 375 -141t142 -344q0 -178 -116.5 -327t-341.5 -149q-104 0 -235 33l31 164q76 -37 158 -37q151 0 228.5 88t77.5 222q0 142 -89.5 235.5t-277.5 93.5q-162 0 -392 -94v-680h-194v1293h-488v173z" />
    <glyph glyph-name="afii10051" unicode="&#x402;" horiz-adv-x="1771" 
d="M50 1466h1170v-173h-488v-456q253 99 440 99q233 0 375 -141t142 -344q0 -178 -116.5 -327t-341.5 -149q-104 0 -235 33l31 164q76 -37 158 -37q151 0 228.5 88t77.5 222q0 142 -89.5 235.5t-277.5 93.5q-162 0 -392 -94v-680h-194v1293h-488v173z" />
    <glyph glyph-name="afii10099" 
d="M135 1217h-134l-1 119h135v130h179v-130h343v-119h-343v-278q61 74 141.5 110.5t179.5 36.5q175 0 270 -92t95 -321v-731q0 -238 -76 -305.5t-190 -67.5q-79 0 -142 19l34 153q52 -14 84 -14q47 0 78.5 31.5t31.5 187.5v727q0 129 -56.5 193.5t-169.5 64.5
q-99 0 -189.5 -69t-90.5 -281v-581h-179v1217z" />
    <glyph glyph-name="afii10099" unicode="&#x452;" 
d="M135 1217h-134l-1 119h135v130h179v-130h343v-119h-343v-278q61 74 141.5 110.5t179.5 36.5q175 0 270 -92t95 -321v-731q0 -238 -76 -305.5t-190 -67.5q-79 0 -142 19l34 153q52 -14 84 -14q47 0 78.5 31.5t31.5 187.5v727q0 129 -56.5 193.5t-169.5 64.5
q-99 0 -189.5 -69t-90.5 -281v-581h-179v1217z" />
    <glyph glyph-name="afii10052" horiz-adv-x="1109" 
d="M395 1556l133 223h282l-263 -223h-152zM161 1466h948v-173h-754v-1293h-194v1466z" />
    <glyph glyph-name="afii10052" unicode="&#x403;" horiz-adv-x="1109" 
d="M395 1556l133 223h282l-263 -223h-152zM161 1466h948v-173h-754v-1293h-194v1466z" />
    <glyph glyph-name="afii10100" horiz-adv-x="747" 
d="M245 1194l133 280h236l-220 -280h-149zM137 1062h611v-149h-431v-913h-180v1062z" />
    <glyph glyph-name="afii10100" unicode="&#x453;" horiz-adv-x="747" 
d="M245 1194l133 280h236l-220 -280h-149zM137 1062h611v-149h-431v-913h-180v1062z" />
    <glyph glyph-name="plusminus" unicode="&#xb1;" horiz-adv-x="1196" 
d="M513 260v403h-399v167h399v399h170v-399h399v-167h-399v-403h-170zM1082 0h-968v168h968v-168z" />
    <glyph glyph-name="afii10103" unicode="&#xb3;" horiz-adv-x="455" 
d="M139 1259v207h180v-207h-180zM139 0v1062h180v-1062h-180z" />
    <glyph glyph-name="afii10103" unicode="&#x456;" horiz-adv-x="455" 
d="M139 1259v207h180v-207h-180zM139 0v1062h180v-1062h-180z" />
    <glyph glyph-name="mu" unicode="&#xb5;" horiz-adv-x="1159" 
d="M1019 1062v-1062h-161v126q-44 -75 -111.5 -113t-157.5 -38q-77 0 -139.5 33t-110.5 99v-514h-178v1469h178v-450q0 -191 14.5 -275t77 -141.5t153.5 -57.5t158 55t83.5 135t16.5 281v453h177z" />
    <glyph glyph-name="afii10057" unicode="&#xa3;" horiz-adv-x="1024" 
d="M59 416l175 24q6 -292 218 -292q118 0 168.5 68.5t50.5 239.5v1010h194v-999q0 -291 -119 -391.5t-293 -100.5q-195 0 -296 112q-98 108 -98 313v16z" />
    <glyph glyph-name="afii10057" unicode="&#x408;" horiz-adv-x="1024" 
d="M59 416l175 24q6 -292 218 -292q118 0 168.5 68.5t50.5 239.5v1010h194v-999q0 -291 -119 -391.5t-293 -100.5q-195 0 -296 112q-98 108 -98 313v16z" />
    <glyph glyph-name="afii10053" unicode="&#xaa;" horiz-adv-x="1472" 
d="M846 843v-173h-545q11 -247 137 -389.5t323 -142.5q350 0 439 372l187 -49q-127 -486 -612 -486q-347 0 -511 231t-164 543q0 200 75.5 365t231.5 271t372 106q228 0 381.5 -113t207.5 -314l-190 -50q-83 307 -400 307q-214 0 -327.5 -132t-141.5 -346h537z" />
    <glyph glyph-name="afii10053" unicode="&#x404;" horiz-adv-x="1472" 
d="M846 843v-173h-545q11 -247 137 -389.5t323 -142.5q350 0 439 372l187 -49q-127 -486 -612 -486q-347 0 -511 231t-164 543q0 200 75.5 365t231.5 271t372 106q228 0 381.5 -113t207.5 -314l-190 -50q-83 307 -400 307q-214 0 -327.5 -132t-141.5 -346h537z" />
    <glyph glyph-name="afii10101" unicode="&#xba;" horiz-adv-x="1045" 
d="M635 618v-148h-375q17 -173 89.5 -259.5t201.5 -86.5q228 0 269 264l176 -23q-28 -175 -145.5 -282t-307.5 -107q-218 0 -343 151.5t-125 403.5q0 259 129 407t352 148q178 0 288 -94.5t134 -243.5l-175 -28q-44 217 -253 217q-120 0 -196.5 -88.5t-93.5 -230.5h375z" />
    <glyph glyph-name="afii10101" unicode="&#x454;" horiz-adv-x="1045" 
d="M635 618v-148h-375q17 -173 89.5 -259.5t201.5 -86.5q228 0 269 264l176 -23q-28 -175 -145.5 -282t-307.5 -107q-218 0 -343 151.5t-125 403.5q0 259 129 407t352 148q178 0 288 -94.5t134 -243.5l-175 -28q-44 217 -253 217q-120 0 -196.5 -88.5t-93.5 -230.5h375z" />
    <glyph glyph-name="afii10056" unicode="&#xaf;" horiz-adv-x="571" 
d="M1 1556v205h192v-205h-192zM377 1556v205h192v-205h-192zM188 0v1466h194v-1466h-194z" />
    <glyph glyph-name="afii10056" unicode="&#x407;" horiz-adv-x="571" 
d="M1 1556v205h192v-205h-192zM377 1556v205h192v-205h-192zM188 0v1466h194v-1466h-194z" />
    <glyph glyph-name="afii10104" unicode="&#xbf;" horiz-adv-x="555" 
d="M-3 1270v205h188v-205h-188zM370 1270v205h188v-205h-188zM188 0v1062h179v-1062h-179z" />
    <glyph glyph-name="afii10104" unicode="&#x457;" horiz-adv-x="555" 
d="M-3 1270v205h188v-205h-188zM370 1270v205h188v-205h-188zM188 0v1062h179v-1062h-179z" />
    <glyph glyph-name="afii10058" horiz-adv-x="2165" 
d="M1178 1466v-626h350q243 0 353 -55.5t159 -154.5t49 -203q0 -137 -70.5 -243.5t-171 -145t-290.5 -38.5h-573v1293h-530v-755q0 -230 -21.5 -337t-90.5 -166.5t-175 -59.5q-64 0 -154 24l33 172q48 -20 82 -20q66 0 99 49.5t33 233.5v1032h918zM1178 165h388
q106 0 167 20.5t104.5 80t43.5 155.5q0 91 -46.5 152.5t-125 80.5t-271.5 19h-260v-508z" />
    <glyph glyph-name="afii10058" unicode="&#x409;" horiz-adv-x="2165" 
d="M1178 1466v-626h350q243 0 353 -55.5t159 -154.5t49 -203q0 -137 -70.5 -243.5t-171 -145t-290.5 -38.5h-573v1293h-530v-755q0 -230 -21.5 -337t-90.5 -166.5t-175 -59.5q-64 0 -154 24l33 172q48 -20 82 -20q66 0 99 49.5t33 233.5v1032h918zM1178 165h388
q106 0 167 20.5t104.5 80t43.5 155.5q0 91 -46.5 152.5t-125 80.5t-271.5 19h-260v-508z" />
    <glyph glyph-name="afii1016" horiz-adv-x="1856" 
d="M1092 1062v-415h229q220 0 341.5 -86t121.5 -239q0 -128 -98 -225t-324 -97h-450v913h-499v-529q0 -175 -19.5 -247t-75 -107.5t-159.5 -35.5q-29 0 -140 6v147q71 -10 111 -10q63 0 83 39t20 186v700h859zM1092 148h189q172 0 245 41.5t73 131.5q0 70 -53.5 123.5
t-239.5 53.5h-214v-350z" />
    <glyph glyph-name="afii1016" unicode="&#x459;" horiz-adv-x="1856" 
d="M1092 1062v-415h229q220 0 341.5 -86t121.5 -239q0 -128 -98 -225t-324 -97h-450v913h-499v-529q0 -175 -19.5 -247t-75 -107.5t-159.5 -35.5q-29 0 -140 6v147q71 -10 111 -10q63 0 83 39t20 186v700h859zM1092 148h189q172 0 245 41.5t73 131.5q0 70 -53.5 123.5
t-239.5 53.5h-214v-350z" />
    <glyph glyph-name="afii10059" horiz-adv-x="2069" 
d="M1082 1466v-626h326q209 0 325.5 -35t188 -138t71.5 -240q0 -143 -75.5 -251t-176 -142t-292.5 -34h-561v673h-530v-673h-194v1466h194v-626h530v626h194zM1082 165h363q124 0 185.5 18t108 78.5t46.5 159.5q0 85 -41 146t-124.5 83.5t-301.5 22.5h-236v-508z" />
    <glyph glyph-name="afii10059" unicode="&#x40a;" horiz-adv-x="2069" 
d="M1082 1466v-626h326q209 0 325.5 -35t188 -138t71.5 -240q0 -143 -75.5 -251t-176 -142t-292.5 -34h-561v673h-530v-673h-194v1466h194v-626h530v626h194zM1082 165h363q124 0 185.5 18t108 78.5t46.5 159.5q0 85 -41 146t-124.5 83.5t-301.5 22.5h-236v-508z" />
    <glyph glyph-name="afii10107" horiz-adv-x="1664" 
d="M901 620h229q222 0 342.5 -83t120.5 -228q0 -129 -101 -219t-321 -90h-450v471h-410v-471h-180v1062h180v-442h410v442h180v-442zM901 141h189q173 0 245 39.5t72 123.5q0 66 -53.5 116.5t-239.5 50.5h-213v-330z" />
    <glyph glyph-name="afii10107" unicode="&#x45a;" horiz-adv-x="1664" 
d="M901 620h229q222 0 342.5 -83t120.5 -228q0 -129 -101 -219t-321 -90h-450v471h-410v-471h-180v1062h180v-442h410v442h180v-442zM901 141h189q173 0 245 39.5t72 123.5q0 66 -53.5 116.5t-239.5 50.5h-213v-330z" />
    <glyph glyph-name="afii10105" unicode="&#xbc;" horiz-adv-x="455" 
d="M138 1257v209h180v-209h-180zM-90 -412l34 153q52 -14 85 -14q63 0 86 41.5t23 177.5v1116h180v-1120q0 -197 -58.5 -285t-208.5 -88q-73 0 -141 19z" />
    <glyph glyph-name="afii10105" unicode="&#x458;" horiz-adv-x="455" 
d="M138 1257v209h180v-209h-180zM-90 -412l34 153q52 -14 85 -14q63 0 86 41.5t23 177.5v1116h180v-1120q0 -197 -58.5 -285t-208.5 -88q-73 0 -141 19z" />
    <glyph glyph-name="afii10054" unicode="&#xbd;" horiz-adv-x="1367" 
d="M92 471l183 16q17 -179 143 -258.5t286 -79.5q169 0 268.5 67t99.5 182q0 72 -42 123t-117.5 79.5t-284.5 78.5q-178 43 -270.5 87.5t-151 127.5t-58.5 193q0 177 140 290.5t376 113.5q251 0 396.5 -116.5t154.5 -321.5l-186 -14q-23 281 -355 281q-161 0 -250 -58.5
t-89 -161.5q0 -90 66.5 -137.5t281.5 -96.5q222 -50 332.5 -96.5t177 -139t66.5 -215.5q0 -194 -149.5 -317t-392.5 -123q-309 0 -465 139.5t-160 356.5z" />
    <glyph glyph-name="afii10054" unicode="&#x405;" horiz-adv-x="1367" 
d="M92 471l183 16q17 -179 143 -258.5t286 -79.5q169 0 268.5 67t99.5 182q0 72 -42 123t-117.5 79.5t-284.5 78.5q-178 43 -270.5 87.5t-151 127.5t-58.5 193q0 177 140 290.5t376 113.5q251 0 396.5 -116.5t154.5 -321.5l-186 -14q-23 281 -355 281q-161 0 -250 -58.5
t-89 -161.5q0 -90 66.5 -137.5t281.5 -96.5q222 -50 332.5 -96.5t177 -139t66.5 -215.5q0 -194 -149.5 -317t-392.5 -123q-309 0 -465 139.5t-160 356.5z" />
    <glyph glyph-name="logicalnot" unicode="&#xac;" horiz-adv-x="1196" 
d="M1082 424h-170v438h-798v168h968v-606z" />
    <glyph glyph-name="guillemotleft" unicode="&#xab;" 
d="M344 528l259 -456h-146l-319 456l319 456h148zM731 528l264 -456h-152l-313 456l313 456h152z" />
    <glyph glyph-name="guillemotright" unicode="&#xbb;" 
d="M795 528l-261 456h148l319 -456l-319 -456h-147zM408 528l-264 456h151l314 -456l-314 -456h-151z" />
    <glyph glyph-name="ellipsis" unicode="&#x2026;" horiz-adv-x="2048" 
d="M239 0v205h205v-205h-205zM922 0v205h205v-205h-205zM1604 0v205h206v-205h-206z" />
    <glyph glyph-name="nonbreakingspace" unicode="&#xa0;" horiz-adv-x="569" 
 />
    <glyph glyph-name="afii10060" horiz-adv-x="1749" 
d="M49 1466h1173v-173h-489v-451q273 94 437 94q159 0 277 -64.5t163.5 -176.5t45.5 -309v-386h-194v379q0 144 -27 223.5t-98.5 124.5t-177.5 45q-161 0 -426 -92v-680h-194v1293h-490v173z" />
    <glyph glyph-name="afii10060" unicode="&#x40b;" horiz-adv-x="1749" 
d="M49 1466h1173v-173h-489v-451q273 94 437 94q159 0 277 -64.5t163.5 -176.5t45.5 -309v-386h-194v379q0 144 -27 223.5t-98.5 124.5t-177.5 45q-161 0 -426 -92v-680h-194v1293h-490v173z" />
    <glyph glyph-name="afii10108" 
d="M135 1336v130h179v-130h343v-119h-343v-278q61 74 141.5 110.5t179.5 36.5q175 0 270 -92t95 -321v-673h-180v673q0 129 -56.5 193.5t-169.5 64.5q-99 0 -189.5 -69t-90.5 -281v-581h-179v1217h-134l-1 119h135z" />
    <glyph glyph-name="afii10108" unicode="&#x45b;" 
d="M135 1336v130h179v-130h343v-119h-343v-278q61 74 141.5 110.5t179.5 36.5q175 0 270 -92t95 -321v-673h-180v673q0 129 -56.5 193.5t-169.5 64.5q-99 0 -189.5 -69t-90.5 -281v-581h-179v1217h-134l-1 119h135z" />
    <glyph glyph-name="afii10061" horiz-adv-x="1193" 
d="M457 1556l133 223h282l-263 -223h-152zM161 1466h194v-642q133 0 187 51.5t138 247.5q61 144 100.5 203.5t112.5 100t161 40.5q112 0 118 -2v-168q-10 0 -39 1q-32 1 -39 1q-93 0 -138.5 -45t-104.5 -192q-74 -186 -125 -234.5t-122 -77.5q142 -39 280 -262l302 -488
h-241l-245 398q-101 165 -169 226.5t-176 61.5v-686h-194v1466z" />
    <glyph glyph-name="afii10061" unicode="&#x40c;" horiz-adv-x="1193" 
d="M457 1556l133 223h282l-263 -223h-152zM161 1466h194v-642q133 0 187 51.5t138 247.5q61 144 100.5 203.5t112.5 100t161 40.5q112 0 118 -2v-168q-10 0 -39 1q-32 1 -39 1q-93 0 -138.5 -45t-104.5 -192q-74 -186 -125 -234.5t-122 -77.5q142 -39 280 -262l302 -488
h-241l-245 398q-101 165 -169 226.5t-176 61.5v-686h-194v1466z" />
    <glyph glyph-name="afii10109" horiz-adv-x="896" 
d="M336 1194l133 280h236l-220 -280h-149zM134 1062h180v-459q86 0 120.5 33t101.5 192q53 126 86 166t76 54t138 14h36v-149l-50 1q-71 0 -91.5 -21.5t-63.5 -130.5q-41 -104 -75 -144t-105 -73q116 -31 228 -216l197 -329h-198l-192 329q-59 99 -103 130.5t-105 31.5v-491
h-180v1062z" />
    <glyph glyph-name="afii10109" unicode="&#x45c;" horiz-adv-x="896" 
d="M336 1194l133 280h236l-220 -280h-149zM134 1062h180v-459q86 0 120.5 33t101.5 192q53 126 86 166t76 54t138 14h36v-149l-50 1q-71 0 -91.5 -21.5t-63.5 -130.5q-41 -104 -75 -144t-105 -73q116 -31 228 -216l197 -329h-198l-192 329q-59 99 -103 130.5t-105 31.5v-491
h-180v1062z" />
    <glyph glyph-name="afii10102" unicode="&#xbe;" horiz-adv-x="1024" 
d="M63 317l178 28q31 -221 275 -221q120 0 182 49.5t62 119.5q0 61 -45 90.5t-192 66.5q-176 45 -256.5 78.5t-127 98.5t-46.5 153q0 140 108.5 223t278.5 83q169 0 285 -64.5t140 -233.5l-176 -24q-25 174 -232 174q-107 0 -168.5 -35.5t-61.5 -101.5q0 -59 43.5 -86
t206.5 -71q184 -49 265 -82.5t122 -98t41 -151.5q0 -143 -115.5 -239.5t-312.5 -96.5q-394 0 -454 341z" />
    <glyph glyph-name="afii10102" unicode="&#x455;" horiz-adv-x="1024" 
d="M63 317l178 28q31 -221 275 -221q120 0 182 49.5t62 119.5q0 61 -45 90.5t-192 66.5q-176 45 -256.5 78.5t-127 98.5t-46.5 153q0 140 108.5 223t278.5 83q169 0 285 -64.5t140 -233.5l-176 -24q-25 174 -232 174q-107 0 -168.5 -35.5t-61.5 -101.5q0 -59 43.5 -86
t206.5 -71q184 -49 265 -82.5t122 -98t41 -151.5q0 -143 -115.5 -239.5t-312.5 -96.5q-394 0 -454 341z" />
    <glyph glyph-name="emdash" unicode="&#x2013;" 
d="M-12 458v145h1163v-145h-1163z" />
    <glyph glyph-name="endash" unicode="&#x2014;" horiz-adv-x="2048" 
d="M-12 458v145h2072v-145h-2072z" />
    <glyph glyph-name="quotedblleft" unicode="&#x201c;" horiz-adv-x="683" 
d="M276 1220v-209h-193v165q0 131 36 202t129 113l44 -70q-108 -44 -110 -201h94zM586 1220v-209h-193v165q0 131 36 202t129 113l44 -70q-108 -44 -110 -201h94z" />
    <glyph glyph-name="quotedblright" unicode="&#x201d;" horiz-adv-x="683" 
d="M86 1272v209h193v-165q0 -131 -35.5 -202t-129.5 -113l-44 71q109 44 110 200h-94zM396 1272v209h193v-165q0 -131 -35.5 -202t-129.5 -113l-44 71q109 44 110 200h-94z" />
    <glyph glyph-name="quoteleft" unicode="&#x2018;" horiz-adv-x="455" 
d="M324 1220v-209h-193v165q0 131 36 202t129 113l44 -70q-108 -44 -110 -201h94z" />
    <glyph glyph-name="quoteright" unicode="&#x2019;" horiz-adv-x="455" 
d="M128 1272v209h193v-165q0 -131 -35.5 -202t-129.5 -113l-44 71q109 44 110 200h-94z" />
    <glyph glyph-name="quotedblbase" unicode="&#x201e;" horiz-adv-x="683" 
d="M87 0v209h193v-165q0 -131 -35.5 -202t-129.5 -113l-44 71q109 44 110 200h-94zM397 0v209h193v-165q0 -131 -35.5 -202t-129.5 -113l-44 71q109 44 110 200h-94z" />
    <glyph glyph-name="afii10062" unicode="&#xa1;" horiz-adv-x="1301" 
d="M346 1804h136q39 -125 206 -125q165 0 205 125h136q-5 -105 -92.5 -178t-235.5 -73q-187 0 -269.5 78t-85.5 173zM10 1466h196l478 -898l418 898h193l-550 -1140q-103 -214 -169 -280t-189 -66q-75 0 -184 35v166q78 -45 165 -45q71 0 122.5 45.5t113.5 207.5z" />
    <glyph glyph-name="afii10062" unicode="&#x40e;" horiz-adv-x="1301" 
d="M346 1804h136q39 -125 206 -125q165 0 205 125h136q-5 -105 -92.5 -178t-235.5 -73q-187 0 -269.5 78t-85.5 173zM10 1466h196l478 -898l418 898h193l-550 -1140q-103 -214 -169 -280t-189 -66q-75 0 -184 35v166q78 -45 165 -45q71 0 122.5 45.5t113.5 207.5z" />
    <glyph glyph-name="afii10110" unicode="&#xa2;" horiz-adv-x="1024" 
d="M187 1466h143q45 -126 192 -126q162 0 206 126h142q-33 -249 -341 -249q-309 0 -342 249zM127 -409l-20 169q57 -16 103 -16q87 0 125.5 40t84.5 170q5 15 16 44l-403 1064h194l221 -615q43 -117 77 -246q29 120 74 242l227 619h180l-404 -1080q-91 -243 -160.5 -328
t-200.5 -85q-48 0 -114 22z" />
    <glyph glyph-name="afii10110" unicode="&#x45e;" horiz-adv-x="1024" 
d="M187 1466h143q45 -126 192 -126q162 0 206 126h142q-33 -249 -341 -249q-309 0 -342 249zM127 -409l-20 169q57 -16 103 -16q87 0 125.5 40t84.5 170q5 15 16 44l-403 1064h194l221 -615q43 -117 77 -246q29 120 74 242l227 619h180l-404 -1080q-91 -243 -160.5 -328
t-200.5 -85q-48 0 -114 22z" />
    <glyph glyph-name="afii10145" horiz-adv-x="1472" 
d="M823 0v-407h-173v407h-490v1466h194v-1293h764v1293h195v-1466h-490z" />
    <glyph glyph-name="afii10145" unicode="&#x40f;" horiz-adv-x="1472" 
d="M823 0v-407h-173v407h-490v1466h194v-1293h764v1293h195v-1466h-490z" />
    <glyph glyph-name="afii10193" horiz-adv-x="1131" 
d="M640 0v-407h-149v407h-355v1062h180v-914h499v914h180v-1062h-355z" />
    <glyph glyph-name="afii10193" unicode="&#x45f;" horiz-adv-x="1131" 
d="M640 0v-407h-149v407h-355v1062h180v-914h499v914h180v-1062h-355z" />
    <glyph glyph-name="afii61352" unicode="&#xb9;" horiz-adv-x="2197" 
d="M160 1466h195l717 -1136v1136h185v-1466h-194l-721 1131v-1131h-182v1466zM1391 785q0 177 99.5 282t263.5 105q163 0 260.5 -108t97.5 -291q0 -185 -100.5 -293t-265.5 -108q-142 0 -248.5 97.5t-106.5 315.5zM1566 779q0 -134 53.5 -202t131.5 -68q73 0 129.5 65.5
t56.5 198.5q0 140 -58.5 202.5t-128.5 62.5q-75 0 -129.5 -65t-54.5 -194zM1410 266h681v-148h-681v148z" />
    <glyph glyph-name="afii10023" unicode="&#xa8;" horiz-adv-x="1367" 
d="M425 1556v205h192v-205h-192zM801 1556v205h192v-205h-192zM162 0v1466h1060v-173h-866v-449h811v-172h-811v-499h900v-173h-1094z" />
    <glyph glyph-name="afii10023" unicode="&#x401;" horiz-adv-x="1367" 
d="M425 1556v205h192v-205h-192zM801 1556v205h192v-205h-192zM162 0v1466h1060v-173h-866v-449h811v-172h-811v-499h900v-173h-1094z" />
    <glyph glyph-name="afii10071" unicode="&#xb8;" 
d="M288 1270v205h188v-205h-188zM661 1270v205h188v-205h-188zM866 342l186 -23q-95 -343 -467 -343q-238 0 -372 146.5t-134 399.5q0 254 132.5 409t363.5 155q215 0 349 -146t134 -407q0 -16 -1 -48h-792q7 -163 94 -262t227 -99q203 0 280 218zM275 633h593
q-10 158 -96 231t-195 73q-134 0 -214.5 -90t-87.5 -214z" />
    <glyph glyph-name="afii10071" unicode="&#x451;" 
d="M288 1270v205h188v-205h-188zM661 1270v205h188v-205h-188zM866 342l186 -23q-95 -343 -467 -343q-238 0 -372 146.5t-134 399.5q0 254 132.5 409t363.5 155q215 0 349 -146t134 -407q0 -16 -1 -48h-792q7 -163 94 -262t227 -99q203 0 280 218zM275 633h593
q-10 158 -96 231t-195 73q-134 0 -214.5 -90t-87.5 -214z" />
    <glyph glyph-name="afii10097" unicode="&#xff;" horiz-adv-x="1109" 
d="M971 1062v-1062h-179v414h-104q-95 0 -141.5 -24.5t-135.5 -157.5l-157 -232h-223l194 286q89 131 177 148q-154 21 -228.5 111t-74.5 207q0 138 97.5 224t282.5 86h492zM792 913h-256q-161 0 -207.5 -50t-46.5 -117q0 -95 68.5 -139.5t242.5 -44.5h199v351z" />
    <glyph glyph-name="afii10097" unicode="&#x44f;" horiz-adv-x="1109" 
d="M971 1062v-1062h-179v414h-104q-95 0 -141.5 -24.5t-135.5 -157.5l-157 -232h-223l194 286q89 131 177 148q-154 21 -228.5 111t-74.5 207q0 138 97.5 224t282.5 86h492zM792 913h-256q-161 0 -207.5 -50t-46.5 -117q0 -95 68.5 -139.5t242.5 -44.5h199v351z" />
    <glyph glyph-name="afii10065" unicode="&#xe0;" 
d="M832 131q-90 -77 -187.5 -116t-203.5 -39q-168 0 -265.5 83.5t-97.5 220.5q0 148 103.5 227.5t314.5 104.5q218 26 321 62q1 37 1 47q0 105 -55.5 160.5t-200.5 55.5q-128 0 -188 -44.5t-89 -157.5l-176 24q58 327 472 327q179 0 274 -52.5t119.5 -127.5t24.5 -221v-240
q0 -237 9.5 -307t47.5 -138h-188q-29 56 -36 131zM817 533q-98 -40 -294 -68q-144 -21 -198.5 -61t-54.5 -119q0 -73 55.5 -120.5t158.5 -47.5q104 0 186 46t114.5 117t32.5 187v66z" />
    <glyph glyph-name="afii10065" unicode="&#x430;" 
d="M832 131q-90 -77 -187.5 -116t-203.5 -39q-168 0 -265.5 83.5t-97.5 220.5q0 148 103.5 227.5t314.5 104.5q218 26 321 62q1 37 1 47q0 105 -55.5 160.5t-200.5 55.5q-128 0 -188 -44.5t-89 -157.5l-176 24q58 327 472 327q179 0 274 -52.5t119.5 -127.5t24.5 -221v-240
q0 -237 9.5 -307t47.5 -138h-188q-29 56 -36 131zM817 533q-98 -40 -294 -68q-144 -21 -198.5 -61t-54.5 -119q0 -73 55.5 -120.5t158.5 -47.5q104 0 186 46t114.5 117t32.5 187v66z" />
    <glyph glyph-name="afii10066" unicode="&#xe1;" horiz-adv-x="1173" 
d="M913 1501l159 -2q-11 -107 -47.5 -149t-94 -54t-225.5 -12q-223 0 -304 -43t-116.5 -137.5t-39.5 -243.5q68 101 159 151.5t205 50.5q209 0 346 -143.5t137 -388.5q0 -186 -69 -305t-163.5 -184t-257.5 -65q-189 0 -294 86.5t-161 221.5t-56 470q0 421 142.5 567
t438.5 146q184 0 209 6t32 28zM904 535q0 166 -78.5 272t-221.5 106q-149 0 -230 -112t-81 -299q0 -185 89.5 -283t220.5 -98q134 0 217.5 113.5t83.5 300.5z" />
    <glyph glyph-name="afii10066" unicode="&#x431;" horiz-adv-x="1173" 
d="M913 1501l159 -2q-11 -107 -47.5 -149t-94 -54t-225.5 -12q-223 0 -304 -43t-116.5 -137.5t-39.5 -243.5q68 101 159 151.5t205 50.5q209 0 346 -143.5t137 -388.5q0 -186 -69 -305t-163.5 -184t-257.5 -65q-189 0 -294 86.5t-161 221.5t-56 470q0 421 142.5 567
t438.5 146q184 0 209 6t32 28zM904 535q0 166 -78.5 272t-221.5 106q-149 0 -230 -112t-81 -299q0 -185 89.5 -283t220.5 -98q134 0 217.5 113.5t83.5 300.5z" />
    <glyph glyph-name="afii10067" unicode="&#xe2;" horiz-adv-x="1088" 
d="M136 1062h415q153 0 227.5 -25.5t128 -93.5t53.5 -163q0 -76 -31.5 -132.5t-94.5 -94.5q75 -25 124.5 -93.5t49.5 -162.5q0 -147 -103 -222t-290 -75h-479v1062zM316 615h192q115 0 158 12t77 48.5t34 87.5q0 84 -59.5 117t-203.5 33h-198v-298zM316 148h237
q153 0 211.5 39t58.5 119q0 51 -33 94.5t-86 55t-170 11.5h-218v-319z" />
    <glyph glyph-name="afii10067" unicode="&#x432;" horiz-adv-x="1088" 
d="M136 1062h415q153 0 227.5 -25.5t128 -93.5t53.5 -163q0 -76 -31.5 -132.5t-94.5 -94.5q75 -25 124.5 -93.5t49.5 -162.5q0 -147 -103 -222t-290 -75h-479v1062zM316 615h192q115 0 158 12t77 48.5t34 87.5q0 84 -59.5 117t-203.5 33h-198v-298zM316 148h237
q153 0 211.5 39t58.5 119q0 51 -33 94.5t-86 55t-170 11.5h-218v-319z" />
    <glyph glyph-name="afii10068" unicode="&#xe3;" horiz-adv-x="747" 
d="M136 1062h611v-149h-431v-913h-180v1062z" />
    <glyph glyph-name="afii10068" unicode="&#x433;" horiz-adv-x="747" 
d="M136 1062h611v-149h-431v-913h-180v1062z" />
    <glyph glyph-name="afii10069" unicode="&#xe4;" horiz-adv-x="1195" 
d="M277 1062h740v-914h115v-449h-148v301h-836v-301h-148v449h95q182 248 182 861v53zM427 913q-20 -517 -160 -765h571v765h-411z" />
    <glyph glyph-name="afii10069" unicode="&#x434;" horiz-adv-x="1195" 
d="M277 1062h740v-914h115v-449h-148v301h-836v-301h-148v449h95q182 248 182 861v53zM427 913q-20 -517 -160 -765h571v765h-411z" />
    <glyph glyph-name="afii10070" unicode="&#xe5;" 
d="M866 342l186 -23q-40 -155 -159 -249t-308 -94q-238 0 -372 146t-134 400q0 255 133 409.5t363 154.5q216 0 349.5 -148t133.5 -407q0 -14 -1 -46h-792q8 -166 95 -263.5t226 -97.5q206 0 280 218zM275 633h593q-10 158 -96 231.5t-195 73.5q-134 0 -214.5 -90
t-87.5 -215z" />
    <glyph glyph-name="afii10070" unicode="&#x435;" 
d="M866 342l186 -23q-40 -155 -159 -249t-308 -94q-238 0 -372 146t-134 400q0 255 133 409.5t363 154.5q216 0 349.5 -148t133.5 -407q0 -14 -1 -46h-792q8 -166 95 -263.5t226 -97.5q206 0 280 218zM275 633h593q-10 158 -96 231.5t-195 73.5q-134 0 -214.5 -90
t-87.5 -215z" />
    <glyph glyph-name="afii10072" unicode="&#xe6;" horiz-adv-x="1370" 
d="M777 1062v-459q86 0 121 33t102 192q63 151 112.5 192.5t156.5 41.5h66v-149l-49 1q-72 0 -92.5 -21.5t-63.5 -130.5q-40 -104 -74 -144t-106 -73q117 -31 228 -216l198 -329h-198l-193 329q-59 100 -103 131t-105 31v-491h-184v491q-60 0 -104 -30.5t-103 -131.5
l-193 -329h-198l197 329q112 185 229 216q-80 37 -112 80.5t-96 207.5q-22 55 -47.5 68t-76.5 13q-13 0 -53 -1v149h25q104 0 146.5 -12.5t76 -53t87.5 -168.5q66 -157 100.5 -191t121.5 -34v459h184z" />
    <glyph glyph-name="afii10072" unicode="&#x436;" horiz-adv-x="1370" 
d="M777 1062v-459q86 0 121 33t102 192q63 151 112.5 192.5t156.5 41.5h66v-149l-49 1q-72 0 -92.5 -21.5t-63.5 -130.5q-40 -104 -74 -144t-106 -73q117 -31 228 -216l198 -329h-198l-193 329q-59 100 -103 131t-105 31v-491h-184v491q-60 0 -104 -30.5t-103 -131.5
l-193 -329h-198l197 329q112 185 229 216q-80 37 -112 80.5t-96 207.5q-22 55 -47.5 68t-76.5 13q-13 0 -53 -1v149h25q104 0 146.5 -12.5t76 -53t87.5 -168.5q66 -157 100.5 -191t121.5 -34v459h184z" />
    <glyph glyph-name="afii10073" unicode="&#xe7;" horiz-adv-x="939" 
d="M370 480v141q114 1 155.5 9t78.5 48t37 100q0 73 -48.5 116.5t-125.5 43.5q-152 0 -213 -179l-171 28q80 299 386 299q170 0 266.5 -93t96.5 -222q0 -130 -126 -207q80 -43 120 -109.5t40 -157.5q0 -143 -104 -232t-291 -89q-363 0 -421 323l169 36q23 -102 93.5 -158
t161.5 -56t151.5 51.5t60.5 131.5q0 62 -38 108t-81 57.5t-156 11.5q-9 0 -41 -1z" />
    <glyph glyph-name="afii10073" unicode="&#x437;" horiz-adv-x="939" 
d="M370 480v141q114 1 155.5 9t78.5 48t37 100q0 73 -48.5 116.5t-125.5 43.5q-152 0 -213 -179l-171 28q80 299 386 299q170 0 266.5 -93t96.5 -222q0 -130 -126 -207q80 -43 120 -109.5t40 -157.5q0 -143 -104 -232t-291 -89q-363 0 -421 323l169 36q23 -102 93.5 -158
t161.5 -56t151.5 51.5t60.5 131.5q0 62 -38 108t-81 57.5t-156 11.5q-9 0 -41 -1z" />
    <glyph glyph-name="afii10074" unicode="&#xe8;" horiz-adv-x="1144" 
d="M135 1062h180v-810l499 810h194v-1062h-180v805l-499 -805h-194v1062z" />
    <glyph glyph-name="afii10074" unicode="&#x438;" horiz-adv-x="1144" 
d="M135 1062h180v-810l499 810h194v-1062h-180v805l-499 -805h-194v1062z" />
    <glyph glyph-name="afii10075" unicode="&#xe9;" horiz-adv-x="1144" 
d="M252 1466h142q46 -126 192 -126q162 0 206 126h143q-35 -252 -342 -252q-308 0 -341 252zM135 1062h180v-810l499 810h194v-1062h-180v805l-499 -805h-194v1062z" />
    <glyph glyph-name="afii10075" unicode="&#x439;" horiz-adv-x="1144" 
d="M252 1466h142q46 -126 192 -126q162 0 206 126h143q-35 -252 -342 -252q-308 0 -341 252zM135 1062h180v-810l499 810h194v-1062h-180v805l-499 -805h-194v1062z" />
    <glyph glyph-name="afii10076" unicode="&#xea;" horiz-adv-x="896" 
d="M134 1062h180v-459q86 0 120.5 33t101.5 192q53 126 86 166t76 54t138 14h36v-149l-50 1q-71 0 -91.5 -21.5t-63.5 -130.5q-41 -104 -75 -144t-105 -73q116 -31 228 -216l197 -329h-198l-192 329q-59 99 -103 130.5t-105 31.5v-491h-180v1062z" />
    <glyph glyph-name="afii10076" unicode="&#x43a;" horiz-adv-x="896" 
d="M134 1062h180v-459q86 0 120.5 33t101.5 192q53 126 86 166t76 54t138 14h36v-149l-50 1q-71 0 -91.5 -21.5t-63.5 -130.5q-41 -104 -75 -144t-105 -73q116 -31 228 -216l197 -329h-198l-192 329q-59 99 -103 130.5t-105 31.5v-491h-180v1062z" />
    <glyph glyph-name="afii10077" unicode="&#xeb;" horiz-adv-x="1195" 
d="M223 1062h836v-1062h-179v913h-477v-529q0 -185 -12 -244t-66 -103t-156 -44q-63 0 -145 8v150h79q56 0 80 11.5t32 36.5t8 163v700z" />
    <glyph glyph-name="afii10077" unicode="&#x43b;" horiz-adv-x="1195" 
d="M223 1062h836v-1062h-179v913h-477v-529q0 -185 -12 -244t-66 -103t-156 -44q-63 0 -145 8v150h79q56 0 80 11.5t32 36.5t8 163v700z" />
    <glyph glyph-name="afii10078" unicode="&#xec;" horiz-adv-x="1408" 
d="M140 1062h280l279 -850l310 850h259v-1062h-180v855l-314 -855h-161l-297 896v-896h-176v1062z" />
    <glyph glyph-name="afii10078" unicode="&#x43c;" horiz-adv-x="1408" 
d="M140 1062h280l279 -850l310 850h259v-1062h-180v855l-314 -855h-161l-297 896v-896h-176v1062z" />
    <glyph glyph-name="afii10079" unicode="&#xed;" horiz-adv-x="1131" 
d="M136 1062h180v-442h499v442h180v-1062h-180v471h-499v-471h-180v1062z" />
    <glyph glyph-name="afii10079" unicode="&#x43d;" horiz-adv-x="1131" 
d="M136 1062h180v-442h499v442h180v-1062h-180v471h-499v-471h-180v1062z" />
    <glyph glyph-name="afii10080" unicode="&#xee;" 
d="M72 531q0 286 146 420.5t352 134.5q228 0 362.5 -148t134.5 -392q0 -287 -138.5 -428.5t-358.5 -141.5q-212 0 -355 137.5t-143 417.5zM257 531q0 -201 88.5 -304t224.5 -103t224 103t88 310q0 189 -86 294.5t-226 105.5q-137 0 -225 -103t-88 -303z" />
    <glyph glyph-name="afii10080" unicode="&#x43e;" 
d="M72 531q0 286 146 420.5t352 134.5q228 0 362.5 -148t134.5 -392q0 -287 -138.5 -428.5t-358.5 -141.5q-212 0 -355 137.5t-143 417.5zM257 531q0 -201 88.5 -304t224.5 -103t224 103t88 310q0 189 -86 294.5t-226 105.5q-137 0 -225 -103t-88 -303z" />
    <glyph glyph-name="afii10081" unicode="&#xef;" horiz-adv-x="1109" 
d="M136 1062h838v-1062h-180v913h-478v-913h-180v1062z" />
    <glyph glyph-name="afii10081" unicode="&#x43f;" horiz-adv-x="1109" 
d="M136 1062h838v-1062h-180v913h-478v-913h-180v1062z" />
    <glyph glyph-name="afii10082" unicode="&#xf0;" 
d="M139 -407v1469h164v-138q55 81 131.5 121.5t174.5 40.5q211 0 331.5 -153t120.5 -381q0 -266 -130 -421t-334 -155q-85 0 -154.5 33.5t-123.5 100.5v-517h-180zM302 525q0 -184 73.5 -292.5t209.5 -108.5q121 0 206.5 102t85.5 318q0 187 -79 294t-204 107
q-128 0 -210 -117t-82 -303z" />
    <glyph glyph-name="afii10082" unicode="&#x440;" 
d="M139 -407v1469h164v-138q55 81 131.5 121.5t174.5 40.5q211 0 331.5 -153t120.5 -381q0 -266 -130 -421t-334 -155q-85 0 -154.5 33.5t-123.5 100.5v-517h-180zM302 525q0 -184 73.5 -292.5t209.5 -108.5q121 0 206.5 102t85.5 318q0 187 -79 294t-204 107
q-128 0 -210 -117t-82 -303z" />
    <glyph glyph-name="afii10083" unicode="&#xf1;" horiz-adv-x="1024" 
d="M828 389l177 -23q-26 -184 -150 -287t-286 -103q-237 0 -363 150t-126 401q0 274 132.5 416.5t351.5 142.5q157 0 275.5 -82t148.5 -254l-175 -27q-50 215 -241 215q-143 0 -225 -102t-82 -299q0 -206 74 -309.5t222 -103.5q229 0 267 265z" />
    <glyph glyph-name="afii10083" unicode="&#x441;" horiz-adv-x="1024" 
d="M828 389l177 -23q-26 -184 -150 -287t-286 -103q-237 0 -363 150t-126 401q0 274 132.5 416.5t351.5 142.5q157 0 275.5 -82t148.5 -254l-175 -27q-50 215 -241 215q-143 0 -225 -102t-82 -299q0 -206 74 -309.5t222 -103.5q229 0 267 265z" />
    <glyph glyph-name="afii10084" unicode="&#xf2;" horiz-adv-x="938" 
d="M38 1062h863v-149h-342v-913h-179v913h-342v149z" />
    <glyph glyph-name="afii10084" unicode="&#x442;" horiz-adv-x="938" 
d="M38 1062h863v-149h-342v-913h-179v913h-342v149z" />
    <glyph glyph-name="afii10085" unicode="&#xf3;" horiz-adv-x="1024" 
d="M127 -409l-20 169q57 -16 104 -16q86 0 124.5 40.5t84.5 169.5q5 15 16 44l-403 1064h194l221 -615q45 -123 77 -246q29 120 74 242l227 619h180l-404 -1080q-92 -245 -161.5 -329t-197.5 -84q-54 0 -116 22z" />
    <glyph glyph-name="afii10085" unicode="&#x443;" horiz-adv-x="1024" 
d="M127 -409l-20 169q57 -16 104 -16q86 0 124.5 40.5t84.5 169.5q5 15 16 44l-403 1064h194l221 -615q45 -123 77 -246q29 120 74 242l227 619h180l-404 -1080q-92 -245 -161.5 -329t-197.5 -84q-54 0 -116 22z" />
    <glyph glyph-name="afii10086" unicode="&#xf4;" horiz-adv-x="1685" 
d="M753 1466h180v-507q56 64 123 95.5t144 31.5q189 0 299.5 -157.5t110.5 -396.5q0 -249 -119 -402.5t-296 -153.5q-58 0 -118 18t-144 98v-499h-180v499q-54 -58 -119.5 -87t-141.5 -29q-167 0 -292 146.5t-125 419.5q0 231 113 387.5t304 156.5q80 0 145 -31.5t116 -95.5
v507zM932 527q0 -240 66 -322.5t165 -82.5q110 0 187.5 101.5t77.5 315.5q0 202 -71.5 301t-183.5 99q-120 0 -180.5 -103t-60.5 -309zM258 547q0 -225 75.5 -324t187.5 -99q117 0 175 98.5t58 295.5q0 210 -61 315t-184 105q-111 0 -181 -102.5t-70 -288.5z" />
    <glyph glyph-name="afii10086" unicode="&#x444;" horiz-adv-x="1685" 
d="M753 1466h180v-507q56 64 123 95.5t144 31.5q189 0 299.5 -157.5t110.5 -396.5q0 -249 -119 -402.5t-296 -153.5q-58 0 -118 18t-144 98v-499h-180v499q-54 -58 -119.5 -87t-141.5 -29q-167 0 -292 146.5t-125 419.5q0 231 113 387.5t304 156.5q80 0 145 -31.5t116 -95.5
v507zM932 527q0 -240 66 -322.5t165 -82.5q110 0 187.5 101.5t77.5 315.5q0 202 -71.5 301t-183.5 99q-120 0 -180.5 -103t-60.5 -309zM258 547q0 -225 75.5 -324t187.5 -99q117 0 175 98.5t58 295.5q0 210 -61 315t-184 105q-111 0 -181 -102.5t-70 -288.5z" />
    <glyph glyph-name="afii10087" unicode="&#xf5;" horiz-adv-x="1024" 
d="M15 0l388 552l-359 510h225l163 -249q51 -78 74 -119q37 55 81 117l179 251h215l-367 -500l395 -562h-221l-218 330l-58 89l-279 -419h-218z" />
    <glyph glyph-name="afii10087" unicode="&#x445;" horiz-adv-x="1024" 
d="M15 0l388 552l-359 510h225l163 -249q51 -78 74 -119q37 55 81 117l179 251h215l-367 -500l395 -562h-221l-218 330l-58 89l-279 -419h-218z" />
    <glyph glyph-name="afii10088" unicode="&#xf6;" horiz-adv-x="1173" 
d="M138 1062h180v-914h498v914h180v-914h116v-555h-148v407h-826v1062z" />
    <glyph glyph-name="afii10088" unicode="&#x446;" horiz-adv-x="1173" 
d="M138 1062h180v-914h498v914h180v-914h116v-555h-148v407h-826v1062z" />
    <glyph glyph-name="afii10089" unicode="&#xf7;" horiz-adv-x="1067" 
d="M69 1062h180v-201q0 -130 15.5 -188.5t74.5 -102t148 -43.5q102 0 264 54v481h180v-1062h-180v428q-166 -52 -310 -52q-121 0 -213.5 61.5t-125.5 150.5t-33 196v278z" />
    <glyph glyph-name="afii10089" unicode="&#x447;" horiz-adv-x="1067" 
d="M69 1062h180v-201q0 -130 15.5 -188.5t74.5 -102t148 -43.5q102 0 264 54v481h180v-1062h-180v428q-166 -52 -310 -52q-121 0 -213.5 61.5t-125.5 150.5t-33 196v278z" />
    <glyph glyph-name="afii10090" unicode="&#xf8;" horiz-adv-x="1643" 
d="M141 1062h180v-913h410v913h180v-913h411v913h179v-1062h-1360v1062z" />
    <glyph glyph-name="afii10090" unicode="&#x448;" horiz-adv-x="1643" 
d="M141 1062h180v-913h410v913h180v-913h411v913h179v-1062h-1360v1062z" />
    <glyph glyph-name="afii10091" unicode="&#xf9;" horiz-adv-x="1685" 
d="M141 1062h180v-914h410v914h180v-914h411v914h179v-914h119v-555h-149v407h-1330v1062z" />
    <glyph glyph-name="afii10091" unicode="&#x449;" horiz-adv-x="1685" 
d="M141 1062h180v-914h410v914h180v-914h411v914h179v-914h119v-555h-149v407h-1330v1062z" />
    <glyph glyph-name="afii10092" unicode="&#xfa;" horiz-adv-x="1280" 
d="M0 1062h515v-415h229q243 0 353 -94.5t110 -231.5q0 -142 -106.5 -231.5t-314.5 -89.5h-451v913h-335v149zM515 146h189q172 0 244 41.5t72 133.5q0 84 -61.5 130t-230.5 46h-213v-351z" />
    <glyph glyph-name="afii10092" unicode="&#x44a;" horiz-adv-x="1280" 
d="M0 1062h515v-415h229q243 0 353 -94.5t110 -231.5q0 -142 -106.5 -231.5t-314.5 -89.5h-451v913h-335v149zM515 146h189q172 0 244 41.5t72 133.5q0 84 -61.5 130t-230.5 46h-213v-351z" />
    <glyph glyph-name="afii10093" unicode="&#xfb;" horiz-adv-x="1472" 
d="M1146 1062h180v-1062h-180v1062zM139 1062h180v-415h228q223 0 343.5 -86.5t120.5 -238.5q0 -133 -100.5 -227.5t-321.5 -94.5h-450v1062zM319 148h189q171 0 244 42t73 131q0 69 -54 123t-239 54h-213v-350z" />
    <glyph glyph-name="afii10093" unicode="&#x44b;" horiz-adv-x="1472" 
d="M1146 1062h180v-1062h-180v1062zM139 1062h180v-415h228q223 0 343.5 -86.5t120.5 -238.5q0 -133 -100.5 -227.5t-321.5 -94.5h-450v1062zM319 148h189q171 0 244 42t73 131q0 69 -54 123t-239 54h-213v-350z" />
    <glyph glyph-name="afii10094" unicode="&#xfc;" horiz-adv-x="1067" 
d="M132 1062h180v-415h228q223 0 343.5 -86.5t120.5 -238.5q0 -133 -100.5 -227.5t-321.5 -94.5h-450v1062zM312 148h189q171 0 244 42t73 131q0 69 -54 123t-239 54h-213v-350z" />
    <glyph glyph-name="afii10094" unicode="&#x44c;" horiz-adv-x="1067" 
d="M132 1062h180v-415h228q223 0 343.5 -86.5t120.5 -238.5q0 -133 -100.5 -227.5t-321.5 -94.5h-450v1062zM312 148h189q171 0 244 42t73 131q0 69 -54 123t-239 54h-213v-350z" />
    <glyph glyph-name="afii10095" unicode="&#xfd;" horiz-adv-x="1045" 
d="M409 618h375q-17 142 -94 231q-76 88 -196 88q-209 0 -253 -217l-175 28q24 149 134 243.5t288 94.5q223 0 352 -148t129 -407q0 -252 -125 -403.5t-343 -151.5q-190 0 -308 107q-117 107 -145 282l176 23q41 -264 269 -264q129 0 201 87q73 86 90 259h-375v148z" />
    <glyph glyph-name="afii10095" unicode="&#x44d;" horiz-adv-x="1045" 
d="M409 618h375q-17 142 -94 231q-76 88 -196 88q-209 0 -253 -217l-175 28q24 149 134 243.5t288 94.5q223 0 352 -148t129 -407q0 -252 -125 -403.5t-343 -151.5q-190 0 -308 107q-117 107 -145 282l176 23q41 -264 269 -264q129 0 201 87q73 86 90 259h-375v148z" />
    <glyph glyph-name="afii10096" unicode="&#xfe;" horiz-adv-x="1536" 
d="M137 1062h180v-444h218q24 228 142.5 348t307.5 120q161 0 254 -65t153.5 -179t60.5 -307q0 -275 -125 -417t-339 -142q-199 0 -319 132t-135 362h-218v-470h-180v1062zM995 933q-132 0 -205.5 -101.5t-73.5 -284.5q0 -219 74 -321t198 -102q123 0 201.5 94.5t78.5 304.5
q0 205 -68 307.5t-205 102.5z" />
    <glyph glyph-name="afii10096" unicode="&#x44e;" horiz-adv-x="1536" 
d="M137 1062h180v-444h218q24 228 142.5 348t307.5 120q161 0 254 -65t153.5 -179t60.5 -307q0 -275 -125 -417t-339 -142q-199 0 -319 132t-135 362h-218v-470h-180v1062zM995 933q-132 0 -205.5 -101.5t-73.5 -284.5q0 -219 74 -321t198 -102q123 0 201.5 94.5t78.5 304.5
q0 205 -68 307.5t-205 102.5z" />
    <glyph glyph-name="currency" unicode="&#xa4;" 
d="M217 961l-139 136l115 119l139 -139q53 36 112.5 54t124.5 18q66 0 125.5 -18t111.5 -54l139 139l116 -119l-139 -136q71 -110 71 -235q0 -126 -71 -236l139 -136l-116 -119l-139 140q-53 -36 -112 -54.5t-125 -18.5q-65 0 -124.5 18.5t-112.5 54.5l-139 -140l-115 119
l139 136q-71 110 -71 237q0 124 71 234zM309 726q0 -105 74.5 -182.5t184.5 -77.5q107 0 183 76t76 184q0 107 -76 183t-183 76q-111 0 -185 -77.5t-74 -181.5z" />
    <glyph glyph-name="brokenbar" unicode="&#xa6;" horiz-adv-x="533" 
d="M345 1491v-790h-157v790h157zM345 360v-791h-157v791h157z" />
    <glyph glyph-name="afii10050" unicode="&#xa5;" horiz-adv-x="830" 
d="M595 1466v406h173v-579h-413v-1293h-194v1466h434z" />
    <glyph glyph-name="afii10050" unicode="&#x490;" horiz-adv-x="830" 
d="M595 1466v406h173v-579h-413v-1293h-194v1466h434z" />
    <glyph glyph-name="afii10098" unicode="&#xb4;" horiz-adv-x="695" 
d="M484 1062v406h149v-555h-317v-913h-180v1062h348z" />
    <glyph glyph-name="afii10098" unicode="&#x491;" horiz-adv-x="695" 
d="M484 1062v406h149v-555h-317v-913h-180v1062h348z" />
    <glyph glyph-name="quotesinglbase" unicode="&#x201a;" horiz-adv-x="463" 
d="M132 0v209h193v-165q0 -131 -35.5 -202t-129.5 -113l-44 71q109 44 110 200h-94z" />
    <glyph glyph-name="doubledagger" unicode="&#x2021;" 
d="M479 -346v370h-402v161h402v725h-402v161h402v375h180v-375h403v-161h-403v-725h403v-161h-403v-370h-180z" />
    <glyph glyph-name="perthousand" unicode="&#x2030;" horiz-adv-x="2048" 
d="M320 -54l601 1545h131l-600 -1545h-132zM37 1099q0 189 75.5 284.5t210.5 95.5q139 0 213.5 -97.5t74.5 -278.5q0 -197 -71.5 -296t-214.5 -99q-140 0 -214 100t-74 291zM185 1091q0 -129 36 -193.5t108 -64.5q67 0 100.5 64.5t33.5 192.5q0 133 -34.5 199t-103.5 66
q-70 0 -105 -66t-35 -198zM763 336q0 189 74.5 284.5t210.5 95.5q131 0 210 -92.5t79 -283.5q0 -197 -71.5 -295.5t-214.5 -98.5q-140 0 -214 100t-74 290zM911 328q0 -129 36 -193.5t108 -64.5q67 0 100.5 64.5t33.5 192.5q0 133 -34.5 199t-103.5 66q-70 0 -105 -66
t-35 -198zM1437 336q0 189 74.5 284.5t211.5 95.5q139 0 213.5 -97.5t74.5 -278.5q0 -197 -71.5 -295.5t-214.5 -98.5q-140 0 -214 100t-74 290zM1585 328q0 -129 36 -193.5t108 -64.5q67 0 100.5 64.5t33.5 192.5q0 133 -34.5 199t-103.5 66q-70 0 -105 -66t-35 -198z" />
    <glyph glyph-name="guilsinglleft" unicode="&#x2039;" horiz-adv-x="684" 
d="M292 527l265 -455h-149l-315 455l315 457h149z" />
    <glyph glyph-name="guillsinglright" unicode="&#x203a;" horiz-adv-x="684" 
d="M392 530l-265 454h149l315 -454l-315 -458h-149z" />
    <glyph glyph-name="periodcentered" unicode="&#xb7;" horiz-adv-x="574" 
d="M184 619v205h205v-205h-205z" />
    <glyph glyph-name="softhyphen" unicode="&#xad;" horiz-adv-x="682" 
d="M65 440v181h553v-181h-553z" />
    <glyph glyph-name="OE" unicode="&#x152;" horiz-adv-x="2069" 
d="M1082 1466v-626h326q209 0 325.5 -35t188 -138t71.5 -240q0 -143 -75.5 -251t-176 -142t-292.5 -34h-561v673h-530v-673h-194v1466h194v-626h530v626h194zM1082 165h363q124 0 185.5 18t108 78.5t46.5 159.5q0 85 -41 146t-124.5 83.5t-301.5 22.5h-236v-508z" />
    <glyph glyph-name="oe" unicode="&#x153;" horiz-adv-x="1664" 
d="M901 620h229q222 0 342.5 -83t120.5 -228q0 -129 -101 -219t-321 -90h-450v471h-410v-471h-180v1062h180v-442h410v442h180v-442zM901 141h189q173 0 245 39.5t72 123.5q0 66 -53.5 116.5t-239.5 50.5h-213v-330z" />
    <glyph glyph-name="Scaron" unicode="&#x160;" horiz-adv-x="2165" 
d="M1178 1466v-626h350q243 0 353 -55.5t159 -154.5t49 -203q0 -137 -70.5 -243.5t-171 -145t-290.5 -38.5h-573v1293h-530v-755q0 -230 -21.5 -337t-90.5 -166.5t-175 -59.5q-64 0 -154 24l33 172q48 -20 82 -20q66 0 99 49.5t33 233.5v1032h918zM1178 165h388
q106 0 167 20.5t104.5 80t43.5 155.5q0 91 -46.5 152.5t-125 80.5t-271.5 19h-260v-508z" />
    <glyph glyph-name="scaron" unicode="&#x161;" horiz-adv-x="1856" 
d="M1092 1062v-415h229q220 0 341.5 -86t121.5 -239q0 -128 -98 -225t-324 -97h-450v913h-499v-529q0 -175 -19.5 -247t-75 -107.5t-159.5 -35.5q-29 0 -140 6v147q71 -10 111 -10q63 0 83 39t20 186v700h859zM1092 148h189q172 0 245 41.5t73 131.5q0 70 -53.5 123.5
t-239.5 53.5h-214v-350z" />
    <glyph glyph-name="Ydieresis" unicode="&#x178;" horiz-adv-x="1131" 
d="M640 0v-407h-149v407h-355v1062h180v-914h499v914h180v-1062h-355z" />
    <glyph glyph-name="florin" unicode="&#x192;" horiz-adv-x="747" 
d="M245 1194l133 280h236l-220 -280h-149zM137 1062h611v-149h-431v-913h-180v1062z" />
    <glyph glyph-name="_extra1" unicode="&#x2116;" horiz-adv-x="2197" 
d="M160 1466h195l717 -1136v1136h185v-1466h-194l-721 1131v-1131h-182v1466zM1391 785q0 177 99.5 282t263.5 105q163 0 260.5 -108t97.5 -291q0 -185 -100.5 -293t-265.5 -108q-142 0 -248.5 97.5t-106.5 315.5zM1566 779q0 -134 53.5 -202t131.5 -68q73 0 129.5 65.5
t56.5 198.5q0 140 -58.5 202.5t-128.5 62.5q-75 0 -129.5 -65t-54.5 -194zM1410 266h681v-148h-681v148z" />
    <glyph glyph-name="periodcentered.0" unicode="&#x2219;" horiz-adv-x="574" 
d="M184 619v205h205v-205h-205z" />
  </font>
</defs>
</svg>
