<svg id="e3d6t6n8hobj1" xmlns="http://www.w3.org/2000/svg" xmlns:xlink="http://www.w3.org/1999/xlink" viewBox="0 0 261.150000 261.150000" shape-rendering="geometricPrecision" text-rendering="geometricPrecision"><style><![CDATA[#e3d6t6n8hobj2_tr {animation: e3d6t6n8hobj2_tr__tr 1500ms linear infinite normal backwards}@keyframes e3d6t6n8hobj2_tr__tr { 0% {transform: translate(124.559998px,137.094997px) rotate(0deg)} 33.333333% {transform: translate(124.559998px,137.094997px) rotate(120deg)} 66.666667% {transform: translate(124.559998px,137.094997px) rotate(240deg)} 100% {transform: translate(124.559998px,137.094997px) rotate(359deg)} }]]></style><defs><linearGradient id="e3d6t6n8hobj3-fill" x1="61.859655" y1="158.746232" x2="129.463488" y2="164.637023" spreadMethod="pad" gradientUnits="userSpaceOnUse"><stop id="e3d6t6n8hobj3-fill-0" offset="0%" stop-color="rgb(46,54,143)"/><stop id="e3d6t6n8hobj3-fill-1" offset="18%" stop-color="rgb(45,68,153)"/><stop id="e3d6t6n8hobj3-fill-2" offset="52%" stop-color="rgb(43,106,180)"/><stop id="e3d6t6n8hobj3-fill-3" offset="99%" stop-color="rgb(40,166,223)"/><stop id="e3d6t6n8hobj3-fill-4" offset="100%" stop-color="rgb(40,168,224)"/></linearGradient><linearGradient id="e3d6t6n8hobj4-fill" x1="67.212691" y1="106.875108" x2="170.082891" y2="115.838902" spreadMethod="pad" gradientUnits="userSpaceOnUse"><stop id="e3d6t6n8hobj4-fill-0" offset="0%" stop-color="rgb(46,54,143)"/><stop id="e3d6t6n8hobj4-fill-1" offset="18%" stop-color="rgb(45,68,153)"/><stop id="e3d6t6n8hobj4-fill-2" offset="52%" stop-color="rgb(43,106,180)"/><stop id="e3d6t6n8hobj4-fill-3" offset="99%" stop-color="rgb(40,166,223)"/><stop id="e3d6t6n8hobj4-fill-4" offset="100%" stop-color="rgb(40,168,224)"/></linearGradient><linearGradient id="e3d6t6n8hobj5-fill" x1="110.186037" y1="134.278986" x2="170.188673" y2="139.507432" spreadMethod="pad" gradientUnits="userSpaceOnUse"><stop id="e3d6t6n8hobj5-fill-0" offset="0%" stop-color="rgb(46,54,143)"/><stop id="e3d6t6n8hobj5-fill-1" offset="18%" stop-color="rgb(45,68,153)"/><stop id="e3d6t6n8hobj5-fill-2" offset="52%" stop-color="rgb(43,106,180)"/><stop id="e3d6t6n8hobj5-fill-3" offset="99%" stop-color="rgb(40,166,223)"/><stop id="e3d6t6n8hobj5-fill-4" offset="100%" stop-color="rgb(40,168,224)"/></linearGradient><radialGradient id="e3d6t6n8hobj7-fill" cx="124.990000" cy="110.270000" r="146.090000" spreadMethod="pad" gradientUnits="userSpaceOnUse"><stop id="e3d6t6n8hobj7-fill-0" offset="86%" stop-color="rgb(40,168,224)"/><stop id="e3d6t6n8hobj7-fill-1" offset="100%" stop-color="rgb(46,54,143)"/></radialGradient></defs><g id="e3d6t6n8hobj2_tr" transform="translate(124.559998,137.094997) rotate(0)"><g id="e3d6t6n8hobj2" transform="scale(0.850000,0.850000) translate(-119.880005,-136.965000)"><polygon id="e3d6t6n8hobj3" points="126.910000,194.060000 64.440000,129.320000 105.950000,148.580000 126.910000,194.060000" fill="url(#e3d6t6n8hobj3-fill)" stroke="none" stroke-width="1"/><polygon id="e3d6t6n8hobj4" points="173.220000,79.870000 106.950000,146.580000 65.440000,127.320000 117.740000,104.300000 173.220000,79.870000" fill="url(#e3d6t6n8hobj4-fill)" stroke="none" stroke-width="1"/><path id="e3d6t6n8hobj5" d="M109,148.580000L130,194.060000L152,139.620000L175.320000,81.870000Z" fill="url(#e3d6t6n8hobj5-fill)" stroke="none" stroke-width="1"/></g></g><g id="e3d6t6n8hobj6" transform="matrix(0.99984769515639 -0.01745240643728 0.01745240643728 0.99984769515639 -2.24698768999980 2.30778223999985)"><path id="e3d6t6n8hobj7" d="M234.660000,51.730000L133.490000,51.730000C176.663810,53.323224,210.529528,89.338570,209.466091,132.528677C208.402654,175.718784,172.805491,210.023799,129.605588,209.490309C86.405685,208.956818,51.666537,173.783197,51.670000,130.580000C51.670000,129.500000,51.670000,128.430000,51.740000,127.370000C51.580000,129.450000,51.500000,131.560000,51.500000,133.680000L51.500000,234.490000C103.445581,274.010641,176.594476,269.105175,222.798039,223.002515C269.001602,176.899855,274.066980,103.761860,234.660000,51.730000Z" fill="url(#e3d6t6n8hobj7-fill)" stroke="none" stroke-width="1"/><path id="e3d6t6n8hobj8" d="M234.660000,51.730000L133.460000,51.730000Q132.020000,51.670000,130.580000,51.670000C88.251381,51.667143,53.462115,85.066427,51.740000,127.360000L51.740000,127.360000C51.580000,129.440000,51.500000,131.550000,51.500000,133.670000L51.500000,234.490000C10.981978,203.663543,-7.925155,152.098714,3.062141,102.386945C14.049436,52.675177,52.927489,13.882029,102.663159,3.003444C152.398830,-7.875142,203.922200,11.144680,234.660000,51.730000Z" fill="rgb(235,34,39)" stroke="none" stroke-width="1"/></g></svg>